advent_pro_thn.ufo
<glyph name="exclam" format="1">
  <advance width="117"/>
  <unicode hex="0021"/>
  <outline>
    <contour>
      <point x="42" y="690" type="line"/>
      <point x="42" y="702"/>
      <point x="50.6667" y="708"/>
      <point x="60" y="708" type="curve" smooth="yes"/>
      <point x="69.3333" y="708"/>
      <point x="74" y="702"/>
      <point x="74" y="690" type="curve"/>
      <point x="66" y="120" type="line"/>
      <point x="51" y="120" type="line"/>
    </contour>
    <contour>
      <point x="75" y="18" type="curve" smooth="yes"/>
      <point x="75" y="8.66667"/>
      <point x="68.3333" y="0"/>
      <point x="59" y="0" type="curve" smooth="yes"/>
      <point x="49.6667" y="0"/>
      <point x="41" y="8.66667"/>
      <point x="41" y="18" type="curve" smooth="yes"/>
      <point x="41" y="26"/>
      <point x="49.6667" y="34"/>
      <point x="59" y="34" type="curve" smooth="yes"/>
      <point x="68.3333" y="34"/>
      <point x="75" y="26"/>
    </contour>
  </outline>
</glyph>
<glyph name="quotedbl" format="1">
  <advance width="222"/>
  <unicode hex="0022"/>
  <outline>
    <contour>
      <point x="163" y="721" type="line"/>
      <point x="163" y="741.235"/>
      <point x="192" y="741.235"/>
      <point x="192" y="721" type="curve"/>
      <point x="185" y="587" type="line"/>
      <point x="168" y="587" type="line"/>
    </contour>
    <contour>
      <point x="28" y="721" type="line"/>
      <point x="28" y="741.235"/>
      <point x="56" y="741.235"/>
      <point x="56" y="721" type="curve"/>
      <point x="50" y="587" type="line"/>
      <point x="33" y="587" type="line"/>
    </contour>
  </outline>
</glyph>
<glyph name="percent" format="1">
  <advance width="707"/>
  <unicode hex="0025"/>
  <outline>
    <contour>
      <point x="68" y="0" type="line"/>
      <point x="605" y="698" type="line"/>
      <point x="631" y="698" type="line"/>
      <point x="94" y="0" type="line"/>
    </contour>
    <contour>
      <point x="173" y="712" type="curve" smooth="yes"/>
      <point x="253.017" y="712"/>
      <point x="318" y="647.583"/>
      <point x="318" y="566" type="curve" smooth="yes"/>
      <point x="318" y="485.983"/>
      <point x="253.017" y="421"/>
      <point x="173" y="421" type="curve" smooth="yes"/>
      <point x="92.3167" y="421"/>
      <point x="27" y="485.983"/>
      <point x="27" y="566" type="curve" smooth="yes"/>
      <point x="27" y="647.583"/>
      <point x="92.3167" y="712"/>
    </contour>
    <contour>
      <point x="173" y="692" type="curve" smooth="yes"/>
      <point x="103.4" y="692"/>
      <point x="47" y="635.6"/>
      <point x="47" y="566" type="curve" smooth="yes"/>
      <point x="47" y="497.967"/>
      <point x="103.4" y="441"/>
      <point x="173" y="441" type="curve" smooth="yes"/>
      <point x="241.933" y="441"/>
      <point x="298" y="497.967"/>
      <point x="298" y="566" type="curve" smooth="yes"/>
      <point x="298" y="635.6"/>
      <point x="241.933" y="692"/>
    </contour>
    <contour>
      <point x="532" y="276" type="curve" smooth="yes"/>
      <point x="612.917" y="276"/>
      <point x="677" y="211.017"/>
      <point x="677" y="131" type="curve" smooth="yes"/>
      <point x="677" y="50.9833"/>
      <point x="612.917" y="-14"/>
      <point x="532" y="-14" type="curve" smooth="yes"/>
      <point x="453.55" y="-14"/>
      <point x="388" y="50.9833"/>
      <point x="388" y="131" type="curve" smooth="yes"/>
      <point x="388" y="211.017"/>
      <point x="453.55" y="276"/>
    </contour>
    <contour>
      <point x="532" y="256" type="curve" smooth="yes"/>
      <point x="464.633" y="256"/>
      <point x="408" y="199.933"/>
      <point x="408" y="131" type="curve" smooth="yes"/>
      <point x="408" y="62.2833"/>
      <point x="464.633" y="7"/>
      <point x="532" y="7" type="curve" smooth="yes"/>
      <point x="601.6" y="7"/>
      <point x="658" y="62.2833"/>
      <point x="658" y="131" type="curve" smooth="yes"/>
      <point x="658" y="199.933"/>
      <point x="601.6" y="256"/>
    </contour>
  </outline>
</glyph>
<glyph name="asterisk" format="1">
  <advance width="336"/>
  <unicode hex="002A"/>
  <outline>
    <contour>
      <point x="29" y="612" type="line"/>
      <point x="155" y="561" type="line"/>
      <point x="154" y="698" type="line"/>
      <point x="176" y="698" type="line"/>
      <point x="175" y="561" type="line"/>
      <point x="305" y="612" type="line"/>
      <point x="312" y="592" type="line"/>
      <point x="182" y="546" type="line"/>
      <point x="264" y="440" type="line"/>
      <point x="248" y="427" type="line"/>
      <point x="166" y="536" type="line"/>
      <point x="89" y="427" type="line"/>
      <point x="71" y="440" type="line"/>
      <point x="150" y="546" type="line"/>
      <point x="22" y="592" type="line"/>
    </contour>
  </outline>
</glyph>
<glyph name="plus" format="1">
  <advance width="376"/>
  <unicode hex="002B"/>
  <outline>
    <contour>
      <point x="196" y="528" type="line"/>
      <point x="196.213" y="379" type="line"/>
      <point x="346.213" y="379" type="line"/>
      <point x="345.787" y="360" type="line"/>
      <point x="195.787" y="360" type="line"/>
      <point x="196" y="209" type="line"/>
      <point x="177" y="209" type="line"/>
      <point x="176.787" y="360" type="line"/>
      <point x="26.7874" y="360" type="line"/>
      <point x="27.2125" y="379" type="line"/>
      <point x="177.213" y="379" type="line"/>
      <point x="177" y="528" type="line"/>
    </contour>
  </outline>
</glyph>
<glyph name="comma" format="1">
  <advance width="111"/>
  <unicode hex="002C"/>
  <outline>
    <contour>
      <point x="30" y="-57" type="line"/>
      <point x="48.6667" y="-38.3333"/>
      <point x="54.6667" y="-17.6667"/>
      <point x="56" y="-3" type="curve"/>
      <point x="49.3333" y="-0.3333"/>
      <point x="45" y="5"/>
      <point x="45" y="13" type="curve" smooth="yes"/>
      <point x="45" y="22.3333"/>
      <point x="51.6667" y="30"/>
      <point x="61" y="30" type="curve" smooth="yes"/>
      <point x="71.6667" y="30"/>
      <point x="78" y="23.6667"/>
      <point x="78" y="13" type="curve"/>
      <point x="78.3333" y="-40.2222"/>
      <point x="38.6666" y="-64.1111"/>
      <point x="39" y="-64" type="curve"/>
    </contour>
  </outline>
</glyph>
<glyph name="one" format="1">
  <advance width="204"/>
  <unicode hex="0031"/>
  <outline>
    <contour>
      <point x="8" y="606" type="line"/>
      <point x="58.1647" y="619.506"/>
      <point x="117.129" y="658.215"/>
      <point x="141" y="698" type="curve"/>
      <point x="161" y="698" type="line"/>
      <point x="161" y="0" type="line"/>
      <point x="141" y="0" type="line"/>
      <point x="141" y="664" type="line"/>
      <point x="107.267" y="630.267"/>
      <point x="63.2009" y="602.048"/>
      <point x="13" y="590" type="curve"/>
    </contour>
  </outline>
</glyph>
<glyph name="three" format="1">
  <advance width="439"/>
  <unicode hex="0033"/>
  <outline>
    <contour>
      <point x="200" y="413" type="line" smooth="yes"/>
      <point x="258.667" y="413"/>
      <point x="310" y="391.333"/>
      <point x="350" y="350" type="curve" smooth="yes"/>
      <point x="391.333" y="308.667"/>
      <point x="412" y="258.333"/>
      <point x="412" y="199" type="curve" smooth="yes"/>
      <point x="412" y="139.667"/>
      <point x="391.333" y="90"/>
      <point x="350" y="50" type="curve"/>
      <point x="310" y="8.66667"/>
      <point x="260" y="-12"/>
      <point x="200" y="-12" type="curve" smooth="yes"/>
      <point x="128" y="-12"/>
      <point x="62.6667" y="24.6667"/>
      <point x="24" y="82" type="curve"/>
      <point x="41" y="94" type="line"/>
      <point x="79.6667" y="36.6667"/>
      <point x="131.333" y="7"/>
      <point x="194" y="7" type="curve" smooth="yes"/>
      <point x="256.667" y="7"/>
      <point x="305.333" y="25.6667"/>
      <point x="340" y="67" type="curve"/>
      <point x="376" y="107"/>
      <point x="393" y="153.667"/>
      <point x="393" y="207" type="curve" smooth="yes"/>
      <point x="393" y="261.667"/>
      <point x="373.667" y="304.667"/>
      <point x="335" y="338" type="curve" smooth="yes"/>
      <point x="295" y="372.667"/>
      <point x="252.667" y="393"/>
      <point x="206" y="393" type="curve" smooth="yes"/>
      <point x="120" y="393" type="line"/>
      <point x="333" y="678" type="line"/>
      <point x="68" y="678" type="line"/>
      <point x="68" y="698" type="line"/>
      <point x="357" y="698" type="line"/>
      <point x="357" y="678" type="line"/>
      <point x="157" y="413" type="line"/>
    </contour>
  </outline>
</glyph>
<glyph name="four" format="1">
  <advance width="463"/>
  <unicode hex="0034"/>
  <outline>
    <contour>
      <point x="345" y="0" type="line"/>
      <point x="344" y="393" type="line"/>
      <point x="15" y="393" type="line"/>
      <point x="186" y="698" type="line"/>
      <point x="206" y="698" type="line"/>
      <point x="48" y="413" type="line"/>
      <point x="344" y="413" type="line"/>
      <point x="344" y="698" type="line"/>
      <point x="363" y="698" type="line"/>
      <point x="363" y="413" type="line"/>
      <point x="436" y="413" type="line"/>
      <point x="431" y="393" type="line"/>
      <point x="363" y="393" type="line"/>
      <point x="363" y="0" type="line"/>
    </contour>
  </outline>
</glyph>
<glyph name="six" format="1">
  <advance width="480"/>
  <unicode hex="0036"/>
  <outline>
    <contour>
      <point x="275" y="679" type="line" smooth="yes"/>
      <point x="132" y="679"/>
      <point x="50" y="595"/>
      <point x="50" y="457" type="curve" smooth="yes"/>
      <point x="50" y="288" type="line"/>
      <point x="90" y="377"/>
      <point x="165" y="414"/>
      <point x="241" y="414" type="curve" smooth="yes"/>
      <point x="359" y="414"/>
      <point x="455" y="321"/>
      <point x="455" y="202" type="curve" smooth="yes"/>
      <point x="455" y="85"/>
      <point x="359" y="-10"/>
      <point x="242" y="-10" type="curve" smooth="yes"/>
      <point x="125" y="-10"/>
      <point x="30" y="85"/>
      <point x="30" y="202" type="curve" smooth="yes"/>
      <point x="30" y="462" type="line" smooth="yes"/>
      <point x="30" y="610"/>
      <point x="126" y="697"/>
      <point x="274" y="697" type="curve" smooth="yes"/>
      <point x="308" y="697" type="line"/>
      <point x="308" y="679" type="line"/>
    </contour>
    <contour>
      <point x="242" y="395" type="curve" smooth="yes"/>
      <point x="136.5" y="395"/>
      <point x="50" y="308.733"/>
      <point x="50" y="202" type="curve" smooth="yes"/>
      <point x="50" y="95.5"/>
      <point x="136.5" y="9"/>
      <point x="242" y="9" type="curve" smooth="yes"/>
      <point x="349.067" y="9"/>
      <point x="435" y="95.5"/>
      <point x="435" y="202" type="curve" smooth="yes"/>
      <point x="435" y="308.733"/>
      <point x="349.067" y="395"/>
    </contour>
  </outline>
</glyph>
<glyph name="nine" format="1">
  <advance width="479"/>
  <unicode hex="0039"/>
  <outline>
    <contour>
      <point x="234" y="706" type="curve" smooth="yes"/>
      <point x="293.333" y="706"/>
      <point x="343.333" y="685.667"/>
      <point x="384" y="645" type="curve" smooth="yes"/>
      <point x="425.333" y="603.667"/>
      <point x="446" y="553.333"/>
      <point x="446" y="494" type="curve" smooth="yes"/>
      <point x="446" y="234" type="line" smooth="yes"/>
      <point x="446" y="180.667"/>
      <point x="429.667" y="128.667"/>
      <point x="395" y="82" type="curve"/>
      <point x="360.333" y="32.6667"/>
      <point x="291" y="-1"/>
      <point x="203" y="-1" type="curve" smooth="yes"/>
      <point x="168" y="-1" type="line"/>
      <point x="168" y="20" type="line"/>
      <point x="206" y="20" type="line" smooth="yes"/>
      <point x="262" y="20"/>
      <point x="311.667" y="34.3333"/>
      <point x="353" y="65" type="curve" smooth="yes"/>
      <point x="398.333" y="98.3333"/>
      <point x="427" y="162"/>
      <point x="427" y="246" type="curve" smooth="yes"/>
      <point x="427" y="408" type="line"/>
      <point x="386.499" y="318.899"/>
      <point x="312.151" y="283"/>
      <point x="235" y="283" type="curve" smooth="yes"/>
      <point x="175" y="283"/>
      <point x="125.333" y="304"/>
      <point x="84" y="344" type="curve" smooth="yes"/>
      <point x="42.6667" y="385.333"/>
      <point x="22" y="435.333"/>
      <point x="22" y="494" type="curve" smooth="yes"/>
      <point x="22" y="553.333"/>
      <point x="42.6667" y="603"/>
      <point x="84" y="643" type="curve"/>
      <point x="125.333" y="685"/>
      <point x="175.333" y="706"/>
    </contour>
    <contour>
      <point x="234" y="687" type="curve" smooth="yes"/>
      <point x="127.833" y="687"/>
      <point x="41" y="602.75"/>
      <point x="41" y="495" type="curve" smooth="yes"/>
      <point x="41" y="388.167"/>
      <point x="127.833" y="301"/>
      <point x="234" y="301" type="curve" smooth="yes"/>
      <point x="340.167" y="301"/>
      <point x="427" y="388.167"/>
      <point x="427" y="495" type="curve" smooth="yes"/>
      <point x="427" y="602.75"/>
      <point x="340.167" y="687"/>
    </contour>
  </outline>
</glyph>
<glyph name="less" format="1">
  <advance width="349"/>
  <unicode hex="003C"/>
  <outline>
    <contour>
      <point x="25" y="358" type="line"/>
      <point x="302" y="635" type="line"/>
      <point x="316" y="623" type="line"/>
      <point x="49" y="356" type="line"/>
      <point x="316" y="94" type="line"/>
      <point x="302" y="79" type="line"/>
    </contour>
  </outline>
</glyph>
<glyph name="question" format="1">
  <advance width="407"/>
  <unicode hex="003F"/>
  <outline>
    <contour>
      <point x="25" y="530" type="line"/>
      <point x="25.6784" y="652.368"/>
      <point x="114.254" y="708.872"/>
      <point x="202.496" y="707.062" type="curve" smooth="yes"/>
      <point x="290.272" y="705.262"/>
      <point x="378" y="646"/>
      <point x="378" y="536" type="curve" smooth="yes"/>
      <point x="378" y="463"/>
      <point x="346.667" y="419.667"/>
      <point x="304" y="373" type="curve" smooth="yes"/>
      <point x="223.72" y="287.368"/>
      <point x="199" y="271.947"/>
      <point x="199" y="193" type="curve" smooth="yes"/>
      <point x="199" y="119" type="line"/>
      <point x="181" y="119" type="line"/>
      <point x="181" y="187" type="line" smooth="yes"/>
      <point x="181" y="294.97"/>
      <point x="226.639" y="309.108"/>
      <point x="297" y="393" type="curve" smooth="yes"/>
      <point x="341.186" y="447.228"/>
      <point x="360" y="481.551"/>
      <point x="360" y="535" type="curve" smooth="yes"/>
      <point x="360" y="616.517"/>
      <point x="297.883" y="689"/>
      <point x="202" y="689" type="curve" smooth="yes"/>
      <point x="125.917" y="689"/>
      <point x="44" y="639.6"/>
      <point x="44" y="530" type="curve"/>
    </contour>
    <contour>
      <point x="191" y="30" type="curve" smooth="yes"/>
      <point x="199" y="30"/>
      <point x="207" y="22.3333"/>
      <point x="207" y="13" type="curve" smooth="yes"/>
      <point x="207" y="3.66667"/>
      <point x="199" y="-4"/>
      <point x="191" y="-4" type="curve" smooth="yes"/>
      <point x="181.667" y="-4"/>
      <point x="173" y="3.66667"/>
      <point x="173" y="13" type="curve" smooth="yes"/>
      <point x="173" y="22.3333"/>
      <point x="181.667" y="30"/>
    </contour>
  </outline>
</glyph>
<glyph name="B" format="1">
  <advance width="504"/>
  <unicode hex="0042"/>
  <outline>
    <contour>
      <point x="260" y="700" type="line" smooth="yes"/>
      <point x="370" y="700"/>
      <point x="438" y="646"/>
      <point x="438" y="540" type="curve" smooth="yes"/>
      <point x="438" y="484"/>
      <point x="400" y="420"/>
      <point x="338" y="402" type="curve"/>
      <point x="431" y="379"/>
      <point x="475" y="299"/>
      <point x="475" y="209" type="curve" smooth="yes"/>
      <point x="475" y="83"/>
      <point x="403" y="0"/>
      <point x="270" y="0" type="curve" smooth="yes"/>
      <point x="41" y="0" type="line"/>
      <point x="41" y="700" type="line"/>
    </contour>
    <contour>
      <point x="298" y="412" type="line" smooth="yes"/>
      <point x="367" y="412"/>
      <point x="419" y="468"/>
      <point x="419" y="542" type="curve" smooth="yes"/>
      <point x="419" y="623"/>
      <point x="371" y="681"/>
      <point x="256" y="681" type="curve" smooth="yes"/>
      <point x="60" y="681" type="line"/>
      <point x="60" y="412" type="line"/>
    </contour>
    <contour>
      <point x="271" y="19" type="line" smooth="yes"/>
      <point x="392" y="19"/>
      <point x="456" y="94"/>
      <point x="456" y="209" type="curve" smooth="yes"/>
      <point x="456" y="318"/>
      <point x="388" y="394"/>
      <point x="273" y="394" type="curve" smooth="yes"/>
      <point x="60" y="394" type="line"/>
      <point x="60" y="19" type="line"/>
    </contour>
  </outline>
</glyph>
<glyph name="E" format="1">
  <advance width="402"/>
  <unicode hex="0045"/>
  <outline>
    <contour>
      <point x="41" y="0" type="line"/>
      <point x="41" y="698" type="line"/>
      <point x="374" y="698" type="line"/>
      <point x="374" y="679" type="line"/>
      <point x="60" y="679" type="line"/>
      <point x="60" y="411" type="line"/>
      <point x="287" y="411" type="line"/>
      <point x="281" y="393" type="line"/>
      <point x="60" y="393" type="line"/>
      <point x="60" y="19" type="line"/>
      <point x="372" y="19" type="line"/>
      <point x="372" y="0" type="line"/>
    </contour>
  </outline>
</glyph>
<glyph name="F" format="1">
  <advance width="387"/>
  <unicode hex="0046"/>
  <outline>
    <contour>
      <point x="374" y="698" type="line"/>
      <point x="374" y="678" type="line"/>
      <point x="61" y="678" type="line"/>
      <point x="61" y="411" type="line"/>
      <point x="288" y="411" type="line"/>
      <point x="281" y="393" type="line"/>
      <point x="61" y="393" type="line"/>
      <point x="61" y="0" type="line"/>
      <point x="41" y="0" type="line"/>
      <point x="41" y="698" type="line"/>
    </contour>
  </outline>
</glyph>
<glyph name="G" format="1">
  <advance width="475"/>
  <unicode hex="0047"/>
  <outline>
    <contour>
      <point x="362" y="657" type="line"/>
      <point x="315" y="680"/>
      <point x="268.667" y="689"/>
      <point x="230" y="689" type="curve" smooth="yes"/>
      <point x="104" y="689"/>
      <point x="53" y="616"/>
      <point x="53" y="495" type="curve" smooth="yes"/>
      <point x="53" y="186" type="line" smooth="yes"/>
      <point x="53" y="70.6344"/>
      <point x="138.713" y="9"/>
      <point x="248" y="9" type="curve" smooth="yes"/>
      <point x="359.143" y="9"/>
      <point x="425" y="69.6158"/>
      <point x="425" y="182" type="curve" smooth="yes"/>
      <point x="425" y="280" type="line"/>
      <point x="250" y="280" type="line"/>
      <point x="242" y="299" type="line"/>
      <point x="444" y="299" type="line"/>
      <point x="444" y="0" type="line"/>
      <point x="425" y="0" type="line"/>
      <point x="425" y="88" type="line"/>
      <point x="395.23" y="27"/>
      <point x="333" y="-10"/>
      <point x="245" y="-10" type="curve" smooth="yes"/>
      <point x="131" y="-10"/>
      <point x="33" y="58"/>
      <point x="33" y="188" type="curve" smooth="yes"/>
      <point x="33" y="502" type="line" smooth="yes"/>
      <point x="33" y="630"/>
      <point x="101" y="707"/>
      <point x="227" y="707" type="curve" smooth="yes"/>
      <point x="279" y="707"/>
      <point x="326.333" y="696"/>
      <point x="369" y="674" type="curve"/>
    </contour>
  </outline>
</glyph>
<glyph name="N" format="1">
  <advance width="575"/>
  <unicode hex="004E"/>
  <outline>
    <contour>
      <point x="532" y="698" type="line"/>
      <point x="532" y="0" type="line"/>
      <point x="515" y="0" type="line"/>
      <point x="59" y="668" type="line"/>
      <point x="59" y="0" type="line"/>
      <point x="41" y="0" type="line"/>
      <point x="41" y="698" type="line"/>
      <point x="59" y="698" type="line"/>
      <point x="515" y="32" type="line"/>
      <point x="515" y="698" type="line"/>
    </contour>
  </outline>
</glyph>
<glyph name="O" format="1">
  <advance width="486"/>
  <unicode hex="004F"/>
  <outline>
    <contour>
      <point x="33" y="506" type="line" smooth="yes"/>
      <point x="33" y="636"/>
      <point x="112" y="714"/>
      <point x="244" y="714" type="curve" smooth="yes"/>
      <point x="374.667" y="714"/>
      <point x="451" y="635.667"/>
      <point x="451" y="505" type="curve" smooth="yes"/>
      <point x="451" y="185" type="line" smooth="yes"/>
      <point x="451" y="62.8833"/>
      <point x="368.167" y="-11"/>
      <point x="243" y="-11" type="curve" smooth="yes"/>
      <point x="126.4" y="-11"/>
      <point x="33" y="56.1333"/>
      <point x="33" y="185" type="curve" smooth="yes"/>
    </contour>
    <contour>
      <point x="52" y="184" type="line" smooth="yes"/>
      <point x="52" y="66.2167"/>
      <point x="136.817" y="8"/>
      <point x="243" y="8" type="curve" smooth="yes"/>
      <point x="350.767" y="8"/>
      <point x="433" y="66.2167"/>
      <point x="433" y="184" type="curve" smooth="yes"/>
      <point x="433" y="508" type="line" smooth="yes"/>
      <point x="433" y="621"/>
      <point x="369" y="694"/>
      <point x="244" y="694" type="curve" smooth="yes"/>
      <point x="117" y="694"/>
      <point x="52" y="620.667"/>
      <point x="52" y="506" type="curve" smooth="yes"/>
    </contour>
  </outline>
</glyph>
<glyph name="S" format="1">
  <advance width="523"/>
  <unicode hex="0053"/>
  <outline>
    <contour>
      <point x="427" y="651" type="line"/>
      <point x="384" y="678"/>
      <point x="324" y="691"/>
      <point x="273" y="691" type="curve" smooth="yes"/>
      <point x="186" y="691"/>
      <point x="77" y="649"/>
      <point x="77" y="547" type="curve" smooth="yes"/>
      <point x="77" y="345"/>
      <point x="495" y="415"/>
      <point x="495" y="167" type="curve" smooth="yes"/>
      <point x="495" y="39"/>
      <point x="372" y="-12"/>
      <point x="261" y="-12" type="curve" smooth="yes"/>
      <point x="170" y="-12"/>
      <point x="74" y="22"/>
      <point x="21" y="99" type="curve"/>
      <point x="34" y="109" type="line"/>
      <point x="88" y="39"/>
      <point x="174" y="7"/>
      <point x="260" y="7" type="curve" smooth="yes"/>
      <point x="362" y="7"/>
      <point x="476" y="50"/>
      <point x="476" y="169" type="curve" smooth="yes"/>
      <point x="476" y="398"/>
      <point x="58" y="329"/>
      <point x="58" y="547" type="curve" smooth="yes"/>
      <point x="58" y="663"/>
      <point x="177" y="708"/>
      <point x="276" y="708" type="curve" smooth="yes"/>
      <point x="331" y="708"/>
      <point x="386" y="695"/>
      <point x="434" y="670" type="curve"/>
    </contour>
  </outline>
</glyph>
<glyph name="V" format="1">
  <advance width="506"/>
  <unicode hex="0056"/>
  <outline>
    <contour>
      <point x="13" y="698" type="line"/>
      <point x="32" y="698" type="line"/>
      <point x="252" y="26" type="line"/>
      <point x="471" y="698" type="line"/>
      <point x="490" y="698" type="line"/>
      <point x="264" y="0" type="line"/>
      <point x="242" y="0" type="line"/>
    </contour>
  </outline>
</glyph>
<glyph name="bracketleft" format="1">
  <advance width="218"/>
  <unicode hex="005B"/>
  <outline>
    <contour>
      <point x="61" y="796" type="line"/>
      <point x="61" y="-95" type="line"/>
      <point x="203" y="-96" type="line"/>
      <point x="203" y="-113" type="line"/>
      <point x="42" y="-113" type="line"/>
      <point x="42" y="815" type="line"/>
      <point x="203" y="815" type="line"/>
      <point x="203" y="798" type="line"/>
    </contour>
  </outline>
</glyph>
<glyph name="bracketright" format="1">
  <advance width="219"/>
  <unicode hex="005D"/>
  <outline>
    <contour>
      <point x="15" y="-113" type="line"/>
      <point x="15" y="-96" type="line"/>
      <point x="157" y="-95" type="line"/>
      <point x="157" y="796" type="line"/>
      <point x="15" y="798" type="line"/>
      <point x="15" y="815" type="line"/>
      <point x="176" y="815" type="line"/>
      <point x="176" y="-113" type="line"/>
    </contour>
  </outline>
</glyph>
<glyph name="grave" format="1">
  <advance width="266"/>
  <unicode hex="0060"/>
  <outline>
    <contour>
      <point x="91" y="727" type="curve"/>
      <point x="143" y="613" type="line"/>
      <point x="122" y="613" type="line"/>
      <point x="66" y="714" type="line" smooth="yes"/>
      <point x="62" y="722"/>
      <point x="62" y="731.667"/>
      <point x="70" y="737" type="curve" smooth="yes"/>
      <point x="78" y="741"/>
      <point x="88.3333" y="736.333"/>
    </contour>
  </outline>
</glyph>
<glyph name="c" format="1">
  <advance width="378"/>
  <unicode hex="0063"/>
  <outline>
    <contour>
      <point x="341" y="459" type="line"/>
      <point x="298" y="481"/>
      <point x="253" y="492"/>
      <point x="211" y="491" type="curve" smooth="yes"/>
      <point x="105" y="491"/>
      <point x="47" y="423"/>
      <point x="47" y="314" type="curve" smooth="yes"/>
      <point x="47" y="176" type="line" smooth="yes"/>
      <point x="47" y="54"/>
      <point x="119" y="9"/>
      <point x="225" y="9" type="curve" smooth="yes"/>
      <point x="290" y="9"/>
      <point x="347" y="26"/>
      <point x="346" y="25" type="curve"/>
      <point x="350" y="5" type="line"/>
      <point x="311" y="-6"/>
      <point x="266" y="-12"/>
      <point x="223" y="-11" type="curve" smooth="yes"/>
      <point x="106" y="-9"/>
      <point x="29" y="43"/>
      <point x="28" y="174" type="curve" smooth="yes"/>
      <point x="28" y="314" type="line" smooth="yes"/>
      <point x="27" y="430"/>
      <point x="89" y="510"/>
      <point x="211" y="510" type="curve" smooth="yes"/>
      <point x="257" y="511"/>
      <point x="305" y="499"/>
      <point x="348" y="478" type="curve"/>
    </contour>
  </outline>
</glyph>
<glyph name="k" format="1">
  <advance width="424"/>
  <unicode hex="006B"/>
  <outline>
    <contour>
      <point x="173" y="378" type="line"/>
      <point x="407" y="0" type="line"/>
      <point x="384" y="0" type="line"/>
      <point x="159" y="365" type="line"/>
      <point x="61" y="276" type="line"/>
      <point x="61" y="0" type="line"/>
      <point x="41" y="0" type="line"/>
      <point x="41" y="698" type="line"/>
      <point x="61" y="698" type="line"/>
      <point x="61" y="300" type="line"/>
      <point x="297" y="518" type="line"/>
      <point x="310" y="506" type="line"/>
    </contour>
  </outline>
</glyph>
<glyph name="o" format="1">
  <advance width="426"/>
  <unicode hex="006F"/>
  <outline>
    <contour>
      <point x="396" y="184" type="line" smooth="yes"/>
      <point x="396" y="67.7346"/>
      <point x="334.546" y="-10"/>
      <point x="214" y="-10" type="curve" smooth="yes"/>
      <point x="85.7333" y="-10"/>
      <point x="27" y="77.1667"/>
      <point x="27" y="184" type="curve" smooth="yes"/>
      <point x="27" y="315" type="line" smooth="yes"/>
      <point x="27" y="441.667"/>
      <point x="95.3333" y="510"/>
      <point x="214" y="510" type="curve" smooth="yes"/>
      <point x="332.667" y="510"/>
      <point x="396" y="436.333"/>
      <point x="396" y="315" type="curve" smooth="yes"/>
    </contour>
    <contour>
      <point x="377" y="319" type="line" smooth="yes"/>
      <point x="377" y="433.667"/>
      <point x="308.667" y="492"/>
      <point x="214" y="492" type="curve" smooth="yes"/>
      <point x="103.47" y="492"/>
      <point x="47" y="427.512"/>
      <point x="47" y="319" type="curve" smooth="yes"/>
      <point x="47" y="184" type="line" smooth="yes"/>
      <point x="47" y="86.0167"/>
      <point x="103.117" y="8"/>
      <point x="214" y="8" type="curve" smooth="yes"/>
      <point x="328.067" y="8"/>
      <point x="377" y="83.7667"/>
      <point x="377" y="184" type="curve" smooth="yes"/>
    </contour>
  </outline>
</glyph>
<glyph name="t" format="1">
  <advance width="238"/>
  <unicode hex="0074"/>
  <outline>
    <contour>
      <point x="59" y="132" type="line" smooth="yes"/>
      <point x="59" y="58.6667"/>
      <point x="84.3333" y="26.6667"/>
      <point x="151" y="4" type="curve"/>
      <point x="144" y="-13" type="line"/>
      <point x="70.6667" y="8.33333"/>
      <point x="39" y="53.3333"/>
      <point x="39" y="132" type="curve" smooth="yes"/>
      <point x="39" y="698" type="line"/>
      <point x="59" y="698" type="line"/>
      <point x="59" y="499" type="line"/>
      <point x="215" y="499" type="line"/>
      <point x="206" y="481" type="line"/>
      <point x="59" y="481" type="line"/>
    </contour>
  </outline>
</glyph>
<glyph name="x" format="1">
  <advance width="390"/>
  <unicode hex="0078"/>
  <outline>
    <contour>
      <point x="198" y="264" type="line"/>
      <point x="340" y="498" type="line"/>
      <point x="362" y="498" type="line"/>
      <point x="209" y="249" type="line"/>
      <point x="359" y="0" type="line"/>
      <point x="338" y="0" type="line"/>
      <point x="198" y="233" type="line"/>
      <point x="51" y="0" type="line"/>
      <point x="29" y="0" type="line"/>
      <point x="187" y="250" type="line"/>
      <point x="36" y="498" type="line"/>
      <point x="59" y="498" type="line"/>
    </contour>
  </outline>
</glyph>
<glyph name="z" format="1">
  <advance width="421"/>
  <unicode hex="007A"/>
  <outline>
    <contour>
      <point x="375" y="499" type="line"/>
      <point x="375" y="481" type="line"/>
      <point x="52" y="19" type="line"/>
      <point x="395" y="19" type="line"/>
      <point x="395" y="0" type="line"/>
      <point x="29" y="0" type="line"/>
      <point x="29" y="19" type="line"/>
      <point x="351" y="481" type="line"/>
      <point x="38" y="481" type="line"/>
      <point x="38" y="499" type="line"/>
    </contour>
  </outline>
</glyph>
<glyph name="exclamdown" format="1">
  <advance width="116"/>
  <unicode hex="00A1"/>
  <outline>
    <contour>
      <point x="73" y="18" type="line"/>
      <point x="73" y="6"/>
      <point x="68" y="0"/>
      <point x="58" y="0" type="curve" smooth="yes"/>
      <point x="50" y="0"/>
      <point x="41" y="7.33333"/>
      <point x="41" y="18" type="curve"/>
      <point x="50" y="588" type="line"/>
      <point x="65" y="588" type="line"/>
    </contour>
    <contour>
      <point x="74" y="691" type="curve" smooth="yes"/>
      <point x="74" y="681.667"/>
      <point x="66" y="674"/>
      <point x="58" y="674" type="curve" smooth="yes"/>
      <point x="48.6667" y="674"/>
      <point x="40" y="681.667"/>
      <point x="40" y="691" type="curve" smooth="yes"/>
      <point x="40" y="701.667"/>
      <point x="48.6667" y="708"/>
      <point x="58" y="708" type="curve" smooth="yes"/>
      <point x="66" y="708"/>
      <point x="74" y="701.667"/>
    </contour>
  </outline>
</glyph>
<glyph name="sterling" format="1">
  <advance width="424"/>
  <unicode hex="00A3"/>
  <outline>
    <contour>
      <point x="136" y="19" type="line" smooth="yes"/>
      <point x="229" y="19"/>
      <point x="297" y="65"/>
      <point x="297" y="161" type="curve" smooth="yes"/>
      <point x="296" y="211"/>
      <point x="271" y="265"/>
      <point x="226" y="316" type="curve" smooth="yes"/>
      <point x="174" y="375" type="line"/>
      <point x="33" y="375" type="line"/>
      <point x="33" y="396" type="line"/>
      <point x="155" y="396" type="line"/>
      <point x="144" y="408" type="line" smooth="yes"/>
      <point x="97" y="462"/>
      <point x="62" y="515"/>
      <point x="63" y="571" type="curve" smooth="yes"/>
      <point x="67" y="647"/>
      <point x="120" y="697"/>
      <point x="196" y="705" type="curve" smooth="yes"/>
      <point x="246.808" y="710.486"/>
      <point x="307.333" y="695"/>
      <point x="358" y="667" type="curve"/>
      <point x="352" y="650" type="line"/>
      <point x="309.333" y="675.333"/>
      <point x="257.667" y="691.667"/>
      <point x="203" y="689" type="curve" smooth="yes"/>
      <point x="132" y="684"/>
      <point x="83" y="634"/>
      <point x="82" y="570" type="curve" smooth="yes"/>
      <point x="82" y="511"/>
      <point x="123" y="462"/>
      <point x="160" y="420" type="curve" smooth="yes"/>
      <point x="181" y="396" type="line"/>
      <point x="391" y="396" type="line"/>
      <point x="391" y="375" type="line"/>
      <point x="200" y="375" type="line"/>
      <point x="241" y="329" type="line" smooth="yes"/>
      <point x="289" y="276"/>
      <point x="317" y="219"/>
      <point x="318" y="163" type="curve" smooth="yes"/>
      <point x="321" y="96"/>
      <point x="286" y="45"/>
      <point x="224" y="19" type="curve"/>
      <point x="391" y="19" type="line"/>
      <point x="391" y="0" type="line"/>
      <point x="33" y="0" type="line"/>
      <point x="33" y="19" type="line"/>
    </contour>
  </outline>
</glyph>
<glyph name="currency" format="1">
  <advance width="443"/>
  <unicode hex="00A4"/>
  <outline>
    <contour>
      <point x="329" y="378" type="line"/>
      <point x="351.667" y="352.667"/>
      <point x="365" y="319"/>
      <point x="365" y="283" type="curve" smooth="yes"/>
      <point x="365" y="245.667"/>
      <point x="351.667" y="212.667"/>
      <point x="329" y="186" type="curve"/>
      <point x="410" y="106" type="line"/>
      <point x="397" y="92" type="line"/>
      <point x="315" y="173" type="line"/>
      <point x="289.667" y="151.667"/>
      <point x="257" y="137"/>
      <point x="221" y="137" type="curve" smooth="yes"/>
      <point x="183.667" y="137"/>
      <point x="150.667" y="151.667"/>
      <point x="124" y="173" type="curve"/>
      <point x="44" y="92" type="line"/>
      <point x="31" y="106" type="line"/>
      <point x="111" y="186" type="line"/>
      <point x="89.6667" y="212.667"/>
      <point x="76" y="245.667"/>
      <point x="76" y="283" type="curve" smooth="yes"/>
      <point x="76" y="319"/>
      <point x="89.6667" y="352.667"/>
      <point x="111" y="378" type="curve"/>
      <point x="31" y="459" type="line"/>
      <point x="44" y="472" type="line"/>
      <point x="124" y="392" type="line"/>
      <point x="150" y="416"/>
      <point x="182.333" y="428"/>
      <point x="221" y="428" type="curve" smooth="yes"/>
      <point x="257" y="428"/>
      <point x="291.667" y="414.667"/>
      <point x="317" y="392" type="curve"/>
      <point x="397" y="472" type="line"/>
      <point x="410" y="459" type="line"/>
    </contour>
    <contour>
      <point x="221" y="157" type="curve" smooth="yes"/>
      <point x="288.367" y="157"/>
      <point x="345" y="213.4"/>
      <point x="345" y="283" type="curve" smooth="yes"/>
      <point x="345" y="350.367"/>
      <point x="288.367" y="407"/>
      <point x="221" y="407" type="curve" smooth="yes"/>
      <point x="152.3" y="407"/>
      <point x="95" y="350.367"/>
      <point x="95" y="283" type="curve" smooth="yes"/>
      <point x="95" y="213.4"/>
      <point x="152.3" y="157"/>
    </contour>
  </outline>
</glyph>
<glyph name="acute" format="1">
  <advance width="266"/>
  <unicode hex="00B4"/>
  <outline>
    <contour>
      <point x="199" y="686" type="curve" smooth="yes"/>
      <point x="143" y="586" type="line"/>
      <point x="122" y="586" type="line"/>
      <point x="174" y="701" type="line" smooth="yes"/>
      <point x="177.909" y="709.644"/>
      <point x="187" y="714"/>
      <point x="195" y="710" type="curve" smooth="yes"/>
      <point x="204.333" y="704.667"/>
      <point x="203.698" y="694.389"/>
    </contour>
  </outline>
</glyph>
<glyph name="mu" format="1">
  <advance width="462"/>
  <unicode hex="00B5"/>
  <outline>
    <contour>
      <point x="409" y="70" type="line" smooth="yes"/>
      <point x="409" y="42"/>
      <point x="413" y="27"/>
      <point x="431" y="10" type="curve"/>
      <point x="420" y="-2" type="line"/>
      <point x="422" y="-2"/>
      <point x="389" y="18"/>
      <point x="390" y="62" type="curve"/>
      <point x="368" y="20"/>
      <point x="310" y="-14"/>
      <point x="239" y="-14" type="curve" smooth="yes"/>
      <point x="159" y="-14"/>
      <point x="93" y="12"/>
      <point x="57" y="80" type="curve"/>
      <point x="57" y="-211" type="line"/>
      <point x="39" y="-206" type="line"/>
      <point x="39" y="501" type="line"/>
      <point x="57" y="501" type="line"/>
      <point x="57" y="152" type="line" smooth="yes"/>
      <point x="57" y="88"/>
      <point x="110" y="2"/>
      <point x="236" y="2" type="curve" smooth="yes"/>
      <point x="319" y="2"/>
      <point x="390" y="48"/>
      <point x="390" y="132" type="curve" smooth="yes"/>
      <point x="390" y="507" type="line"/>
      <point x="409" y="510" type="line"/>
    </contour>
  </outline>
</glyph>
<glyph name="guillemotright" format="1">
  <advance width="481"/>
  <unicode hex="00BB"/>
  <outline>
    <contour>
      <point x="204" y="266" type="line"/>
      <point x="31" y="440" type="line"/>
      <point x="46" y="453" type="line"/>
      <point x="233" y="266" type="line"/>
      <point x="46" y="79" type="line"/>
      <point x="32" y="96" type="line"/>
    </contour>
    <contour>
      <point x="423" y="266" type="line"/>
      <point x="250" y="440" type="line"/>
      <point x="266" y="453" type="line"/>
      <point x="452" y="266" type="line"/>
      <point x="266" y="79" type="line"/>
      <point x="251" y="96" type="line"/>
    </contour>
  </outline>
</glyph>
<glyph name="questiondown" format="1">
  <advance width="411"/>
  <unicode hex="00BF"/>
  <outline>
    <contour>
      <point x="381" y="162" type="line"/>
      <point x="380.669" y="39.9832"/>
      <point x="293.689" y="-16.137"/>
      <point x="206.163" y="-15.1127" type="curve" smooth="yes"/>
      <point x="117.181" y="-14.0714"/>
      <point x="28" y="46"/>
      <point x="28" y="156" type="curve" smooth="yes"/>
      <point x="28" y="229"/>
      <point x="58.3333" y="273.667"/>
      <point x="101" y="319" type="curve" smooth="yes"/>
      <point x="182.081" y="405.486"/>
      <point x="206" y="419.398"/>
      <point x="206" y="499" type="curve" smooth="yes"/>
      <point x="206" y="573" type="line"/>
      <point x="225" y="573" type="line"/>
      <point x="225" y="503" type="line" smooth="yes"/>
      <point x="225" y="401"/>
      <point x="181" y="383"/>
      <point x="108" y="303" type="curve" smooth="yes"/>
      <point x="61" y="252"/>
      <point x="46" y="210"/>
      <point x="46" y="156" type="curve" smooth="yes"/>
      <point x="46" y="75"/>
      <point x="108.8" y="3"/>
      <point x="204" y="3" type="curve" smooth="yes"/>
      <point x="281.667" y="3"/>
      <point x="361" y="53.3"/>
      <point x="361" y="162" type="curve"/>
    </contour>
    <contour>
      <point x="215" y="695" type="curve" smooth="yes"/>
      <point x="225.667" y="695"/>
      <point x="232" y="689.667"/>
      <point x="232" y="679" type="curve" smooth="yes"/>
      <point x="232" y="669.667"/>
      <point x="225.667" y="662"/>
      <point x="215" y="662" type="curve" smooth="yes"/>
      <point x="205.667" y="662"/>
      <point x="198" y="669.667"/>
      <point x="198" y="679" type="curve" smooth="yes"/>
      <point x="198" y="689.667"/>
      <point x="205.667" y="695"/>
    </contour>
  </outline>
</glyph>
<glyph name="Thorn" format="1">
  <advance width="398"/>
  <unicode hex="00DE"/>
  <outline>
    <contour>
      <point x="369" y="290" type="line" smooth="yes"/>
      <point x="369" y="192"/>
      <point x="325" y="141"/>
      <point x="258" y="119" type="curve" smooth="yes"/>
      <point x="202" y="101"/>
      <point x="125" y="102"/>
      <point x="60" y="120" type="curve"/>
      <point x="60" y="0" type="line"/>
      <point x="41" y="0" type="line"/>
      <point x="41" y="700" type="line"/>
      <point x="60" y="700" type="line"/>
      <point x="60" y="599" type="line"/>
      <point x="115" y="623"/>
      <point x="178" y="633"/>
      <point x="232" y="622" type="curve" smooth="yes"/>
      <point x="322" y="603"/>
      <point x="369" y="524"/>
      <point x="369" y="436" type="curve" smooth="yes"/>
    </contour>
    <contour>
      <point x="225" y="604" type="curve" smooth="yes"/>
      <point x="176" y="613"/>
      <point x="116" y="605"/>
      <point x="60" y="576" type="curve"/>
      <point x="60" y="138" type="line"/>
      <point x="86" y="132"/>
      <point x="178" y="113"/>
      <point x="255" y="138" type="curve" smooth="yes"/>
      <point x="327" y="162"/>
      <point x="350" y="216"/>
      <point x="350" y="292" type="curve" smooth="yes"/>
      <point x="350" y="430" type="line" smooth="yes"/>
      <point x="350" y="515"/>
      <point x="312" y="584"/>
    </contour>
  </outline>
</glyph>
<glyph name="eth" format="1">
  <advance width="418"/>
  <unicode hex="00F0"/>
  <outline>
    <contour>
      <point x="181" y="686" type="curve"/>
      <point x="184" y="699" type="line"/>
      <point x="250" y="690.333"/>
      <point x="301.167" y="664.833"/>
      <point x="337.5" y="622.5" type="curve" smooth="yes"/>
      <point x="373.833" y="580.167"/>
      <point x="392" y="529"/>
      <point x="392" y="469" type="curve" smooth="yes"/>
      <point x="392" y="187" type="line" smooth="yes"/>
      <point x="392" y="60.3333"/>
      <point x="324.667" y="-9"/>
      <point x="206" y="-9" type="curve" smooth="yes"/>
      <point x="87.3333" y="-9"/>
      <point x="23" y="65.6667"/>
      <point x="23" y="187" type="curve" smooth="yes"/>
      <point x="23" y="245" type="line" smooth="yes"/>
      <point x="23" y="367.667"/>
      <point x="87.3333" y="433"/>
      <point x="198" y="433" type="curve" smooth="yes"/>
      <point x="258.559" y="433"/>
      <point x="350.176" y="396.536"/>
      <point x="372" y="339" type="curve"/>
      <point x="372" y="469" type="line" smooth="yes"/>
      <point x="372" y="630.321"/>
      <point x="245.517" y="675.247"/>
    </contour>
    <contour>
      <point x="43" y="251" type="curve" smooth="yes"/>
      <point x="43" y="182" type="line" smooth="yes"/>
      <point x="43" y="68.6667"/>
      <point x="110" y="11"/>
      <point x="206" y="11" type="curve" smooth="yes"/>
      <point x="315.109" y="11"/>
      <point x="372" y="74.5488"/>
      <point x="372" y="182" type="curve" smooth="yes"/>
      <point x="372" y="273" type="line"/>
      <point x="374.417" y="370.167"/>
      <point x="264.333" y="421.583"/>
      <point x="179" y="416" type="curve" smooth="yes"/>
      <point x="92.3333" y="410.667"/>
      <point x="43" y="352.333"/>
    </contour>
    <contour>
      <point x="370" y="689" type="line"/>
      <point x="197" y="513" type="line"/>
      <point x="185" y="524" type="line"/>
      <point x="358" y="700" type="line"/>
    </contour>
  </outline>
</glyph>
<glyph name="divide" format="1">
  <advance width="383"/>
  <unicode hex="00F7"/>
  <outline>
    <contour>
      <point x="30" y="372" type="line"/>
      <point x="30" y="393" type="line"/>
      <point x="349" y="393" type="line"/>
      <point x="349" y="372" type="line"/>
    </contour>
    <contour>
      <point x="190" y="528" type="curve" smooth="yes"/>
      <point x="200.667" y="528"/>
      <point x="208" y="520.667"/>
      <point x="208" y="510" type="curve" smooth="yes"/>
      <point x="208" y="502"/>
      <point x="200.667" y="494"/>
      <point x="190" y="494" type="curve" smooth="yes"/>
      <point x="182" y="494"/>
      <point x="174" y="502"/>
      <point x="174" y="510" type="curve" smooth="yes"/>
      <point x="174" y="520.667"/>
      <point x="182" y="528"/>
    </contour>
    <contour>
      <point x="190" y="271" type="curve" smooth="yes"/>
      <point x="200.667" y="271"/>
      <point x="208" y="264.667"/>
      <point x="208" y="254" type="curve" smooth="yes"/>
      <point x="208" y="244.667"/>
      <point x="200.667" y="238"/>
      <point x="190" y="238" type="curve" smooth="yes"/>
      <point x="182" y="238"/>
      <point x="174" y="244.667"/>
      <point x="174" y="254" type="curve" smooth="yes"/>
      <point x="174" y="264.667"/>
      <point x="182" y="271"/>
    </contour>
  </outline>
</glyph>
<glyph name="oslash" format="1">
  <advance width="426"/>
  <unicode hex="00F8"/>
  <outline>
    <component base="o"/>
    <contour>
      <point x="343.934" y="512.289" type="line"/>
      <point x="104.801" y="-19.8668" type="line"/>
      <point x="83.8007" y="-19.8668" type="line"/>
      <point x="322.934" y="512.289" type="line"/>
    </contour>
  </outline>
</glyph>
<glyph name="Hbar" format="1">
  <advance width="513"/>
  <unicode hex="0126"/>
  <outline>
    <component base="Eta"/>
    <contour>
      <point x="503" y="498" type="line"/>
      <point x="6" y="498" type="line"/>
      <point x="6" y="518" type="line"/>
      <point x="503" y="518" type="line"/>
    </contour>
  </outline>
</glyph>
<glyph name="hbar" format="1">
  <advance width="468"/>
  <unicode hex="0127"/>
  <outline>
    <contour>
      <point x="259" y="595" type="line"/>
      <point x="24" y="595" type="line"/>
      <point x="24" y="615" type="line"/>
      <point x="259" y="615" type="line"/>
    </contour>
    <contour>
      <point x="87" y="471" type="line"/>
      <point x="119" y="485.667"/>
      <point x="180" y="505.333"/>
      <point x="232" y="508" type="curve" smooth="yes"/>
      <point x="318.797" y="513.26"/>
      <point x="436" y="501.549"/>
      <point x="436" y="345" type="curve" smooth="yes"/>
      <point x="436" y="0" type="line"/>
      <point x="417" y="0" type="line"/>
      <point x="417" y="346" type="line" smooth="yes"/>
      <point x="417" y="459.455"/>
      <point x="352.897" y="498.994"/>
      <point x="245" y="493" type="curve" smooth="yes"/>
      <point x="187.667" y="490.333"/>
      <point x="123" y="471.667"/>
      <point x="87" y="453" type="curve"/>
      <point x="87" y="0" type="line"/>
      <point x="67" y="0" type="line"/>
      <point x="67" y="698" type="line"/>
      <point x="87" y="698" type="line"/>
    </contour>
  </outline>
</glyph>
<glyph name="Lslash" format="1">
  <advance width="506"/>
  <unicode hex="0141"/>
  <outline>
    <component base="L" xOffset="85"/>
    <contour>
      <point x="25" y="342" type="line"/>
      <point x="17" y="359" type="line"/>
      <point x="308" y="490" type="line"/>
      <point x="316" y="474" type="line"/>
    </contour>
  </outline>
</glyph>
<glyph name="eng" format="1">
  <advance width="442"/>
  <unicode hex="014B"/>
  <outline>
    <contour>
      <point x="406" y="-48" type="line" smooth="yes"/>
      <point x="406" y="-97.3333"/>
      <point x="395.333" y="-131"/>
      <point x="370" y="-155" type="curve" smooth="yes"/>
      <point x="352.667" y="-172.333"/>
      <point x="329.667" y="-184.333"/>
      <point x="299" y="-195" type="curve"/>
      <point x="293" y="-177" type="line"/>
      <point x="323.667" y="-165"/>
      <point x="332" y="-160.667"/>
      <point x="356" y="-142" type="curve"/>
      <point x="377.333" y="-123.333"/>
      <point x="386" y="-92"/>
      <point x="386" y="-48" type="curve" smooth="yes"/>
      <point x="386" y="346" type="line" smooth="yes"/>
      <point x="386" y="459.454"/>
      <point x="323.913" y="498.995"/>
      <point x="216" y="493" type="curve" smooth="yes"/>
      <point x="156" y="490.333"/>
      <point x="94.3333" y="471.667"/>
      <point x="57" y="453" type="curve"/>
      <point x="57" y="0" type="line"/>
      <point x="38" y="0" type="line"/>
      <point x="38" y="498" type="line"/>
      <point x="57" y="498" type="line"/>
      <point x="57" y="471" type="line"/>
      <point x="90.3333" y="485.667"/>
      <point x="151" y="505.333"/>
      <point x="203" y="508" type="curve" smooth="yes"/>
      <point x="289.511" y="513.243"/>
      <point x="406" y="501.563"/>
      <point x="406" y="345" type="curve" smooth="yes"/>
    </contour>
  </outline>
</glyph>
<glyph name="tbar" format="1">
  <advance width="284"/>
  <unicode hex="0167"/>
  <outline>
    <contour>
      <point x="254" y="339" type="line"/>
      <point x="24" y="339" type="line"/>
      <point x="24" y="355" type="line"/>
      <point x="254" y="355" type="line"/>
    </contour>
    <contour>
      <point x="99" y="132" type="line" smooth="yes"/>
      <point x="99" y="58.6667"/>
      <point x="124.333" y="26.6667"/>
      <point x="191" y="4" type="curve"/>
      <point x="184" y="-13" type="line"/>
      <point x="110.667" y="8.33333"/>
      <point x="79" y="53.3333"/>
      <point x="79" y="132" type="curve" smooth="yes"/>
      <point x="79" y="698" type="line"/>
      <point x="99" y="698" type="line"/>
      <point x="99" y="499" type="line"/>
      <point x="255" y="499" type="line"/>
      <point x="246" y="481" type="line"/>
      <point x="99" y="481" type="line"/>
    </contour>
  </outline>
</glyph>
<glyph name="dotlessj" format="1">
  <advance width="169"/>
  <unicode hex="0237"/>
  <outline>
    <contour>
      <point x="130" y="-68" type="line" smooth="yes"/>
      <point x="130" y="-149"/>
      <point x="100" y="-190"/>
      <point x="24" y="-213" type="curve"/>
      <point x="18" y="-196" type="line"/>
      <point x="85" y="-170"/>
      <point x="113" y="-144"/>
      <point x="113" y="-67" type="curve" smooth="yes"/>
      <point x="113" y="481" type="line"/>
      <point x="28" y="481" type="line"/>
      <point x="28" y="499" type="line"/>
      <point x="130" y="499" type="line"/>
    </contour>
  </outline>
</glyph>
<glyph name="breve" format="1">
  <advance width="266"/>
  <unicode hex="02D8"/>
  <outline>
    <contour>
      <point x="245" y="702" type="line"/>
      <point x="245" y="695" type="line" smooth="yes"/>
      <point x="245" y="632.267"/>
      <point x="195.067" y="582"/>
      <point x="133" y="582" type="curve" smooth="yes"/>
      <point x="71.6167" y="582"/>
      <point x="20" y="632.267"/>
      <point x="20" y="695" type="curve" smooth="yes"/>
      <point x="20" y="702" type="line"/>
      <point x="42" y="702" type="line"/>
      <point x="42" y="695" type="line" smooth="yes"/>
      <point x="42" y="645.308"/>
      <point x="83.3081" y="604"/>
      <point x="133" y="604" type="curve" smooth="yes"/>
      <point x="183.188" y="604"/>
      <point x="225" y="644.506"/>
      <point x="225" y="695" type="curve" smooth="yes"/>
      <point x="225" y="702" type="line"/>
    </contour>
  </outline>
</glyph>
<glyph name="dotaccent" format="1">
  <advance width="266"/>
  <unicode hex="02D9"/>
  <outline>
    <contour>
      <point x="133" y="732" type="curve" smooth="yes"/>
      <point x="142.333" y="732"/>
      <point x="149" y="724.667"/>
      <point x="149" y="714" type="curve" smooth="yes"/>
      <point x="149" y="704.667"/>
      <point x="142.333" y="697"/>
      <point x="133" y="697" type="curve" smooth="yes"/>
      <point x="123.667" y="697"/>
      <point x="116" y="704.667"/>
      <point x="116" y="714" type="curve" smooth="yes"/>
      <point x="116" y="724.667"/>
      <point x="123.667" y="732"/>
    </contour>
  </outline>
</glyph>
<glyph name="uni0308" format="1">
  <advance width="266"/>
  <unicode hex="0308"/>
  <outline>
    <contour>
      <point x="65" y="724"/>
      <point x="71" y="718"/>
      <point x="71" y="706" type="curve" smooth="yes"/>
      <point x="71" y="695"/>
      <point x="65" y="690"/>
      <point x="54" y="690" type="curve" smooth="yes"/>
      <point x="45" y="690"/>
      <point x="37" y="697"/>
      <point x="37" y="706" type="curve" smooth="yes"/>
      <point x="37" y="717"/>
      <point x="45" y="724"/>
      <point x="54" y="724" type="curve" smooth="yes"/>
    </contour>
    <contour>
      <point x="221" y="724"/>
      <point x="229" y="717"/>
      <point x="229" y="706" type="curve" smooth="yes"/>
      <point x="229" y="697"/>
      <point x="221" y="690"/>
      <point x="212" y="690" type="curve" smooth="yes"/>
      <point x="201" y="690"/>
      <point x="196" y="695"/>
      <point x="196" y="706" type="curve" smooth="yes"/>
      <point x="196" y="718"/>
      <point x="201" y="724"/>
      <point x="212" y="724" type="curve" smooth="yes"/>
    </contour>
  </outline>
</glyph>
<glyph name="Eta" format="1">
  <advance width="513"/>
  <unicode hex="0397"/>
  <outline>
    <contour>
      <point x="451" y="411" type="line"/>
      <point x="451" y="698" type="line"/>
      <point x="470" y="698" type="line"/>
      <point x="470" y="0" type="line"/>
      <point x="451" y="0" type="line"/>
      <point x="451" y="393" type="line"/>
      <point x="60" y="393" type="line"/>
      <point x="60" y="0" type="line"/>
      <point x="41" y="0" type="line"/>
      <point x="41" y="698" type="line"/>
      <point x="60" y="698" type="line"/>
      <point x="60" y="411" type="line"/>
    </contour>
  </outline>
</glyph>
<glyph name="Lambda" format="1">
  <advance width="543"/>
  <unicode hex="039B"/>
  <outline>
    <contour>
      <point x="270" y="668" type="line"/>
      <point x="39" y="0" type="line"/>
      <point x="20" y="0" type="line"/>
      <point x="261" y="698" type="line"/>
      <point x="280" y="698" type="line"/>
      <point x="524" y="0" type="line"/>
      <point x="504" y="0" type="line"/>
    </contour>
  </outline>
</glyph>
<glyph name="Xi" format="1">
  <advance width="559"/>
  <unicode hex="039E"/>
  <outline>
    <contour>
      <point x="22" y="593" type="line"/>
      <point x="43.3333" y="667.667"/>
      <point x="88.3333" y="698"/>
      <point x="167" y="698" type="curve" smooth="yes"/>
      <point x="491" y="698" type="line"/>
      <point x="482" y="678" type="line"/>
      <point x="167" y="678" type="line" smooth="yes"/>
      <point x="94.6875" y="678"/>
      <point x="59" y="652.51"/>
      <point x="40" y="586" type="curve"/>
    </contour>
    <contour>
      <point x="414" y="342" type="line"/>
      <point x="148" y="342" type="line"/>
      <point x="148" y="362" type="line"/>
      <point x="414" y="362" type="line"/>
    </contour>
    <contour>
      <point x="385" y="20" type="line" smooth="yes"/>
      <point x="458.199" y="20"/>
      <point x="491" y="46"/>
      <point x="511" y="113" type="curve"/>
      <point x="530" y="106" type="line"/>
      <point x="510" y="31.3333"/>
      <point x="463.667" y="0"/>
      <point x="385" y="0" type="curve" smooth="yes"/>
      <point x="62" y="0" type="line"/>
      <point x="70" y="20" type="line"/>
    </contour>
  </outline>
</glyph>
<glyph name="Sigma" format="1">
  <advance width="522"/>
  <unicode hex="03A3"/>
  <outline>
    <contour>
      <point x="331" y="20" type="line" smooth="yes"/>
      <point x="407" y="20"/>
      <point x="451" y="35"/>
      <point x="473" y="113" type="curve"/>
      <point x="493" y="107" type="line"/>
      <point x="471" y="32"/>
      <point x="427" y="0"/>
      <point x="348" y="0" type="curve" smooth="yes"/>
      <point x="25" y="0" type="line"/>
      <point x="251" y="384" type="line"/>
      <point x="41" y="702" type="line"/>
      <point x="470" y="702" type="line"/>
      <point x="461" y="682" type="line"/>
      <point x="76" y="682" type="line"/>
      <point x="274" y="383" type="line"/>
      <point x="59" y="20" type="line"/>
    </contour>
  </outline>
</glyph>
<glyph name="Upsilon" format="1">
  <advance width="513"/>
  <unicode hex="03A5"/>
  <outline>
    <contour>
      <point x="472" y="145" type="line" smooth="yes"/>
      <point x="472" y="61"/>
      <point x="437.333" y="10.3333"/>
      <point x="368" y="-7" type="curve"/>
      <point x="362" y="11" type="line"/>
      <point x="400.113" y="21.0297"/>
      <point x="452" y="41.8762"/>
      <point x="452" y="152" type="curve" smooth="yes"/>
      <point x="452" y="350" type="line"/>
      <point x="436.158" y="314.355"/>
      <point x="381.441" y="244"/>
      <point x="259" y="244" type="curve" smooth="yes"/>
      <point x="188.333" y="244"/>
      <point x="131.667" y="262.667"/>
      <point x="93" y="296" type="curve" smooth="yes"/>
      <point x="51.6667" y="330.667"/>
      <point x="30" y="382.667"/>
      <point x="30" y="452" type="curve" smooth="yes"/>
      <point x="30" y="698" type="line"/>
      <point x="49" y="698" type="line"/>
      <point x="49" y="457" type="line" smooth="yes"/>
      <point x="49" y="393"/>
      <point x="66.6667" y="343"/>
      <point x="104" y="311" type="curve"/>
      <point x="138.667" y="279"/>
      <point x="189.667" y="263"/>
      <point x="259" y="263" type="curve" smooth="yes"/>
      <point x="313.667" y="263"/>
      <point x="358" y="276.667"/>
      <point x="392" y="304" type="curve" smooth="yes"/>
      <point x="430.667" y="333.333"/>
      <point x="452" y="380.667"/>
      <point x="452" y="430" type="curve" smooth="yes"/>
      <point x="452" y="698" type="line"/>
      <point x="472" y="698" type="line"/>
    </contour>
  </outline>
</glyph>
<glyph name="Chi" format="1">
  <advance width="557"/>
  <unicode hex="03A7"/>
  <outline>
    <contour>
      <point x="278" y="381" type="line"/>
      <point x="490" y="698" type="line"/>
      <point x="514" y="698" type="line"/>
      <point x="291" y="363" type="line"/>
      <point x="534" y="0" type="line"/>
      <point x="509" y="0" type="line"/>
      <point x="278" y="345" type="line"/>
      <point x="50" y="0" type="line"/>
      <point x="25" y="0" type="line"/>
      <point x="267" y="363" type="line"/>
      <point x="43" y="698" type="line"/>
      <point x="65" y="698" type="line"/>
    </contour>
  </outline>
</glyph>
<glyph name="Omegagreek" format="1">
  <advance width="579"/>
  <unicode hex="03A9"/>
  <outline>
    <contour>
      <point x="533" y="186" type="line" smooth="yes"/>
      <point x="533" y="85.8064"/>
      <point x="488" y="35"/>
      <point x="418" y="20" type="curve"/>
      <point x="542" y="20" type="line"/>
      <point x="549" y="0" type="line"/>
      <point x="318" y="0" type="line"/>
      <point x="318" y="20" type="line"/>
      <point x="418" y="26.4442"/>
      <point x="517" y="45"/>
      <point x="517" y="186" type="curve" smooth="yes"/>
      <point x="517" y="507" type="line" smooth="yes"/>
      <point x="517" y="630"/>
      <point x="448.667" y="688"/>
      <point x="346" y="688" type="curve" smooth="yes"/>
      <point x="234" y="688" type="line" smooth="yes"/>
      <point x="130" y="688"/>
      <point x="64" y="629.667"/>
      <point x="64" y="507" type="curve" smooth="yes"/>
      <point x="64" y="186" type="line" smooth="yes"/>
      <point x="64" y="45"/>
      <point x="162.725" y="26.4442"/>
      <point x="261" y="20" type="curve"/>
      <point x="261" y="0" type="line"/>
      <point x="33" y="0" type="line"/>
      <point x="40" y="20" type="line"/>
      <point x="164" y="20" type="line"/>
      <point x="90.732" y="35"/>
      <point x="47" y="87.0695"/>
      <point x="47" y="186" type="curve" smooth="yes"/>
      <point x="47" y="507" type="line" smooth="yes"/>
      <point x="47" y="629.667"/>
      <point x="108.667" y="705"/>
      <point x="234" y="705" type="curve" smooth="yes"/>
      <point x="346" y="705" type="line" smooth="yes"/>
      <point x="472" y="705"/>
      <point x="533" y="629.667"/>
      <point x="533" y="507" type="curve" smooth="yes"/>
    </contour>
  </outline>
</glyph>
<glyph name="delta" format="1">
  <advance width="429"/>
  <unicode hex="03B4"/>
  <outline>
    <contour>
      <point x="239" y="679" type="line" smooth="yes"/>
      <point x="196.326" y="679"/>
      <point x="146.408" y="663.934"/>
      <point x="143" y="606" type="curve" smooth="yes"/>
      <point x="140" y="555"/>
      <point x="181.311" y="528.514"/>
      <point x="218" y="506" type="curve" smooth="yes"/>
      <point x="237" y="494"/>
      <point x="251" y="487"/>
      <point x="262" y="480" type="curve" smooth="yes"/>
      <point x="278" y="471"/>
      <point x="290" y="464"/>
      <point x="311.122" y="451" type="curve" smooth="yes"/>
      <point x="387.914" y="404.3"/>
      <point x="399" y="342.333"/>
      <point x="399" y="285" type="curve" smooth="yes"/>
      <point x="399" y="183" type="line" smooth="yes"/>
      <point x="399" y="56.3333"/>
      <point x="336.667" y="-11"/>
      <point x="214" y="-11" type="curve" smooth="yes"/>
      <point x="87.3333" y="-11"/>
      <point x="27" y="63"/>
      <point x="27" y="183" type="curve" smooth="yes"/>
      <point x="27" y="310" type="line" smooth="yes"/>
      <point x="27" y="370"/>
      <point x="48.2189" y="419.123"/>
      <point x="81" y="453" type="curve" smooth="yes"/>
      <point x="107.168" y="480.042"/>
      <point x="140" y="497.789"/>
      <point x="179" y="506" type="curve"/>
      <point x="167" y="516" type="line" smooth="yes"/>
      <point x="140.239" y="538.301"/>
      <point x="122" y="566.667"/>
      <point x="122" y="600" type="curve" smooth="yes"/>
      <point x="122" y="679.05"/>
      <point x="192.933" y="698"/>
      <point x="239" y="698" type="curve" smooth="yes"/>
      <point x="351" y="698" type="line"/>
      <point x="341" y="679" type="line"/>
    </contour>
    <contour>
      <point x="379" y="301" type="line" smooth="yes"/>
      <point x="379" y="357.904"/>
      <point x="355.22" y="403.752"/>
      <point x="285" y="444" type="curve" smooth="yes"/>
      <point x="203" y="491" type="line"/>
      <point x="160.439" y="486.947"/>
      <point x="120.634" y="471.267"/>
      <point x="90" y="438" type="curve" smooth="yes"/>
      <point x="58.6995" y="404.009"/>
      <point x="46" y="359.667"/>
      <point x="46" y="309" type="curve" smooth="yes"/>
      <point x="46" y="183" type="line" smooth="yes"/>
      <point x="46" y="91.0833"/>
      <point x="86.4" y="8"/>
      <point x="211" y="8" type="curve" smooth="yes"/>
      <point x="338.75" y="8"/>
      <point x="379" y="81.5167"/>
      <point x="379" y="184" type="curve" smooth="yes"/>
    </contour>
  </outline>
</glyph>
<glyph name="epsilon" format="1">
  <advance width="392"/>
  <unicode hex="03B5"/>
  <outline>
    <contour>
      <point x="300" y="474" type="line"/>
      <point x="275.476" y="483.81"/>
      <point x="222.444" y="492"/>
      <point x="199" y="492" type="curve" smooth="yes"/>
      <point x="132.147" y="492"/>
      <point x="65" y="461.01"/>
      <point x="65" y="385" type="curve" smooth="yes"/>
      <point x="65" y="334.333"/>
      <point x="98.6667" y="300"/>
      <point x="152" y="300" type="curve" smooth="yes"/>
      <point x="300" y="300" type="line"/>
      <point x="293" y="282" type="line"/>
      <point x="187" y="282" type="line" smooth="yes"/>
      <point x="90.9833" y="282"/>
      <point x="45" y="225.183"/>
      <point x="45" y="148" type="curve" smooth="yes"/>
      <point x="45" y="66.6667"/>
      <point x="105" y="9"/>
      <point x="204" y="9" type="curve" smooth="yes"/>
      <point x="293" y="9"/>
      <point x="364" y="44.4166"/>
      <point x="363" y="43" type="curve"/>
      <point x="370" y="23" type="line"/>
      <point x="330" y="8.33333"/>
      <point x="265.667" y="-11"/>
      <point x="207" y="-11" type="curve" smooth="yes"/>
      <point x="71.0333" y="-11"/>
      <point x="26" y="74.95"/>
      <point x="26" y="151" type="curve" smooth="yes"/>
      <point x="26" y="221.667"/>
      <point x="62" y="269"/>
      <point x="122" y="288" type="curve"/>
      <point x="60" y="302"/>
      <point x="46" y="351.864"/>
      <point x="46" y="385" type="curve" smooth="yes"/>
      <point x="46" y="446.967"/>
      <point x="94.9833" y="509"/>
      <point x="197" y="509" type="curve" smooth="yes"/>
      <point x="230.333" y="509"/>
      <point x="265.333" y="504.333"/>
      <point x="300" y="495" type="curve"/>
    </contour>
  </outline>
</glyph>
<glyph name="theta" format="1">
  <advance width="438"/>
  <unicode hex="03B8"/>
  <outline>
    <contour>
      <point x="211" y="707" type="curve" smooth="yes"/>
      <point x="337.667" y="707"/>
      <point x="402" y="628.667"/>
      <point x="402" y="502" type="curve" smooth="yes"/>
      <point x="402" y="188" type="line" smooth="yes"/>
      <point x="402" y="62.6667"/>
      <point x="339.667" y="-6"/>
      <point x="217" y="-6" type="curve" smooth="yes"/>
      <point x="91.6667" y="-6"/>
      <point x="30" y="69.3333"/>
      <point x="30" y="188" type="curve" smooth="yes"/>
      <point x="30" y="312" type="line" smooth="yes"/>
      <point x="30" y="380"/>
      <point x="60.6667" y="421.333"/>
      <point x="98" y="448" type="curve"/>
      <point x="53.973" y="492.027"/>
      <point x="49" y="538.662"/>
      <point x="49" y="557" type="curve" smooth="yes"/>
      <point x="49" y="636.3"/>
      <point x="106.15" y="707"/>
    </contour>
    <contour>
      <point x="382" y="502" type="line" smooth="yes"/>
      <point x="382" y="619.333"/>
      <point x="320.333" y="690"/>
      <point x="211" y="690" type="curve" smooth="yes"/>
      <point x="124.883" y="690"/>
      <point x="69" y="631.483"/>
      <point x="69" y="559" type="curve" smooth="yes"/>
      <point x="69" y="509"/>
      <point x="98" y="457"/>
      <point x="170" y="423" type="curve" smooth="yes"/>
      <point x="219" y="400"/>
      <point x="288" y="385"/>
      <point x="382" y="385" type="curve"/>
    </contour>
    <contour>
      <point x="214" y="14" type="curve" smooth="yes"/>
      <point x="342" y="14"/>
      <point x="382" y="83.4833"/>
      <point x="382" y="186" type="curve" smooth="yes"/>
      <point x="382" y="369" type="line"/>
      <point x="240.667" y="369"/>
      <point x="158.667" y="399.667"/>
      <point x="112" y="437" type="curve"/>
      <point x="74.6667" y="411.667"/>
      <point x="49" y="369.667"/>
      <point x="49" y="311" type="curve" smooth="yes"/>
      <point x="49" y="185" type="line" smooth="yes"/>
      <point x="49" y="95.3"/>
      <point x="91" y="14"/>
    </contour>
  </outline>
</glyph>
<glyph name="kappa" format="1">
  <advance width="429"/>
  <unicode hex="03BA"/>
  <outline>
    <contour>
      <point x="292" y="113" type="line" smooth="yes"/>
      <point x="337" y="50"/>
      <point x="377" y="18"/>
      <point x="407" y="18" type="curve"/>
      <point x="407" y="-1" type="line"/>
      <point x="359" y="-1"/>
      <point x="316" y="50"/>
      <point x="291" y="86" type="curve" smooth="yes"/>
      <point x="152" y="278" type="line"/>
      <point x="56" y="179" type="line"/>
      <point x="56" y="0" type="line"/>
      <point x="38" y="0" type="line"/>
      <point x="38" y="512" type="line"/>
      <point x="56" y="508" type="line"/>
      <point x="56" y="206" type="line"/>
      <point x="329" y="501" type="line"/>
      <point x="355" y="501" type="line"/>
      <point x="164" y="292" type="line"/>
    </contour>
  </outline>
</glyph>
<glyph name="lambda" format="1">
  <advance width="501"/>
  <unicode hex="03BB"/>
  <outline>
    <contour>
      <point x="401" y="114" type="line" smooth="yes"/>
      <point x="413" y="74"/>
      <point x="423" y="34"/>
      <point x="485" y="5" type="curve"/>
      <point x="474" y="-8" type="line"/>
      <point x="419" y="18"/>
      <point x="401" y="47"/>
      <point x="381" y="112" type="curve" smooth="yes"/>
      <point x="268" y="485" type="line"/>
      <point x="202" y="485"/>
      <point x="172" y="442"/>
      <point x="148" y="360" type="curve" smooth="yes"/>
      <point x="41" y="-1" type="line"/>
      <point x="23" y="-1" type="line"/>
      <point x="132" y="371" type="line" smooth="yes"/>
      <point x="155" y="450"/>
      <point x="189" y="500"/>
      <point x="261" y="506" type="curve"/>
      <point x="239" y="578" type="line" smooth="yes"/>
      <point x="227" y="617"/>
      <point x="207" y="678"/>
      <point x="113" y="678" type="curve"/>
      <point x="117" y="697" type="line"/>
      <point x="211" y="697"/>
      <point x="243" y="634"/>
      <point x="257" y="590" type="curve" smooth="yes"/>
    </contour>
  </outline>
</glyph>
<glyph name="pi" format="1">
  <advance width="468"/>
  <unicode hex="03C0"/>
  <outline>
    <contour>
      <point x="413" y="77" type="line" smooth="yes"/>
      <point x="413" y="51.6667"/>
      <point x="422" y="33"/>
      <point x="438" y="21" type="curve"/>
      <point x="425" y="4" type="line"/>
      <point x="405.56" y="20.6626"/>
      <point x="395" y="43.9035"/>
      <point x="395" y="79" type="curve"/>
      <point x="397" y="482" type="line"/>
      <point x="54" y="482" type="line"/>
      <point x="54" y="0" type="line"/>
      <point x="38" y="0" type="line"/>
      <point x="38" y="498" type="line"/>
      <point x="413" y="498" type="line"/>
    </contour>
  </outline>
</glyph>
<glyph name="tau" format="1">
  <advance width="342"/>
  <unicode hex="03C4"/>
  <outline>
    <contour>
      <point x="175" y="132" type="line" smooth="yes"/>
      <point x="175" y="78.2663"/>
      <point x="174.536" y="24.1255"/>
      <point x="249" y="4" type="curve"/>
      <point x="242" y="-13" type="line"/>
      <point x="165.904" y="10.4142"/>
      <point x="155" y="58.4862"/>
      <point x="155" y="132" type="curve" smooth="yes"/>
      <point x="155" y="479" type="line"/>
      <point x="16" y="479" type="line"/>
      <point x="16" y="498" type="line"/>
      <point x="318" y="498" type="line"/>
      <point x="318" y="479" type="line"/>
      <point x="175" y="479" type="line"/>
    </contour>
  </outline>
</glyph>
<glyph name="upsilon" format="1">
  <advance width="438"/>
  <unicode hex="03C5"/>
  <outline>
    <contour>
      <point x="403" y="184" type="line" smooth="yes"/>
      <point x="403" y="68"/>
      <point x="340" y="-10"/>
      <point x="220" y="-10" type="curve" smooth="yes"/>
      <point x="93.9833" y="-10"/>
      <point x="33" y="77.1667"/>
      <point x="33" y="184" type="curve" smooth="yes"/>
      <point x="33" y="499" type="line"/>
      <point x="53" y="499" type="line"/>
      <point x="53" y="184" type="line" smooth="yes"/>
      <point x="53" y="86.0167"/>
      <point x="110.8" y="8"/>
      <point x="221" y="8" type="curve" smooth="yes"/>
      <point x="335.95" y="8"/>
      <point x="386" y="83.7667"/>
      <point x="386" y="184" type="curve" smooth="yes"/>
      <point x="386" y="499" type="line"/>
      <point x="403" y="499" type="line"/>
    </contour>
  </outline>
</glyph>
<glyph name="phi" format="1">
  <advance width="582"/>
  <unicode hex="03C6"/>
  <outline>
    <contour>
      <point x="28" y="313" type="line" smooth="yes"/>
      <point x="28" y="414.333"/>
      <point x="66.6667" y="476.667"/>
      <point x="144" y="502" type="curve"/>
      <point x="153" y="485" type="line"/>
      <point x="93" y="470.333"/>
      <point x="48" y="419"/>
      <point x="48" y="315" type="curve" smooth="yes"/>
      <point x="48" y="178" type="line" smooth="yes"/>
      <point x="48" y="67.8"/>
      <point x="117.383" y="10"/>
      <point x="217" y="10" type="curve" smooth="yes"/>
      <point x="281" y="10" type="line"/>
      <point x="281" y="408" type="line" smooth="yes"/>
      <point x="281" y="465.333"/>
      <point x="312" y="505"/>
      <point x="375" y="506" type="curve" smooth="yes"/>
      <point x="490.985" y="507.841"/>
      <point x="552" y="423.583"/>
      <point x="552" y="306" type="curve" smooth="yes"/>
      <point x="552" y="188" type="line" smooth="yes"/>
      <point x="552" y="68"/>
      <point x="493.667" y="-7"/>
      <point x="367" y="-7" type="curve" smooth="yes"/>
      <point x="297" y="-7" type="line"/>
      <point x="297" y="-211" type="line"/>
      <point x="281" y="-205" type="line"/>
      <point x="281" y="-7" type="line"/>
      <point x="217" y="-7" type="line" smooth="yes"/>
      <point x="89" y="-7"/>
      <point x="28" y="68"/>
      <point x="28" y="188" type="curve" smooth="yes"/>
    </contour>
    <contour>
      <point x="367" y="10" type="line" smooth="yes"/>
      <point x="480.333" y="10"/>
      <point x="536" y="75.6667"/>
      <point x="536" y="185" type="curve" smooth="yes"/>
      <point x="536" y="316" type="line" smooth="yes"/>
      <point x="536" y="382.251"/>
      <point x="499" y="489"/>
      <point x="380" y="489" type="curve" smooth="yes"/>
      <point x="327" y="489"/>
      <point x="297" y="462.333"/>
      <point x="297" y="401" type="curve" smooth="yes"/>
      <point x="297" y="10" type="line"/>
    </contour>
  </outline>
</glyph>
<glyph name="chi" format="1">
  <advance width="451"/>
  <unicode hex="03C7"/>
  <outline>
    <contour>
      <point x="342" y="-107" type="line" smooth="yes"/>
      <point x="372.667" y="-168.333"/>
      <point x="401.667" y="-195.333"/>
      <point x="447" y="-198" type="curve"/>
      <point x="438" y="-211" type="line"/>
      <point x="384.667" y="-211"/>
      <point x="358.667" y="-176.333"/>
      <point x="324" y="-107" type="curve" smooth="yes"/>
      <point x="207" y="131" type="line"/>
      <point x="38" y="-196" type="line"/>
      <point x="21" y="-189" type="line"/>
      <point x="197" y="148" type="line"/>
      <point x="21" y="498" type="line"/>
      <point x="41" y="498" type="line"/>
      <point x="206" y="166" type="line"/>
      <point x="380" y="498" type="line"/>
      <point x="400" y="498" type="line"/>
      <point x="217" y="148" type="line"/>
    </contour>
  </outline>
</glyph>
<glyph name="psi" format="1">
  <advance width="590"/>
  <unicode hex="03C8"/>
  <outline>
    <contour>
      <point x="525" y="504" type="line"/>
      <point x="551.667" y="470.667"/>
      <point x="557" y="431.333"/>
      <point x="557" y="386" type="curve" smooth="yes"/>
      <point x="557" y="188" type="line" smooth="yes"/>
      <point x="557" y="68"/>
      <point x="495.667" y="-7"/>
      <point x="369" y="-7" type="curve" smooth="yes"/>
      <point x="305" y="-7" type="line"/>
      <point x="305" y="-211" type="line"/>
      <point x="288" y="-205" type="line"/>
      <point x="288" y="-7" type="line"/>
      <point x="218" y="-7" type="line" smooth="yes"/>
      <point x="92.6667" y="-7"/>
      <point x="32" y="68"/>
      <point x="32" y="188" type="curve" smooth="yes"/>
      <point x="32" y="498" type="line"/>
      <point x="50" y="498" type="line"/>
      <point x="50" y="185" type="line" smooth="yes"/>
      <point x="50" y="77"/>
      <point x="108" y="10"/>
      <point x="218" y="10" type="curve" smooth="yes"/>
      <point x="288" y="10" type="line"/>
      <point x="288" y="498" type="line"/>
      <point x="305" y="498" type="line"/>
      <point x="305" y="10" type="line"/>
      <point x="369" y="10" type="line" smooth="yes"/>
      <point x="471" y="10"/>
      <point x="538" y="66"/>
      <point x="538" y="178" type="curve" smooth="yes"/>
      <point x="538" y="388" type="line" smooth="yes"/>
      <point x="538" y="445"/>
      <point x="529" y="471.333"/>
      <point x="506" y="498" type="curve"/>
    </contour>
  </outline>
</glyph>
<glyph name="omega" format="1">
  <advance width="593"/>
  <unicode hex="03C9"/>
  <outline>
    <contour>
      <point x="455" y="497" type="line"/>
      <point x="525.667" y="471"/>
      <point x="561" y="410.333"/>
      <point x="561" y="315" type="curve" smooth="yes"/>
      <point x="561" y="186" type="line" smooth="yes"/>
      <point x="561" y="54"/>
      <point x="509.667" y="-13"/>
      <point x="403" y="-13" type="curve" smooth="yes"/>
      <point x="362.833" y="-13"/>
      <point x="302.021" y="10.7784"/>
      <point x="296" y="73" type="curve"/>
      <point x="289.975" y="10.7408"/>
      <point x="228" y="-13"/>
      <point x="188" y="-13" type="curve" smooth="yes"/>
      <point x="78" y="-13"/>
      <point x="30" y="52"/>
      <point x="30" y="184" type="curve" smooth="yes"/>
      <point x="30" y="315" type="line" smooth="yes"/>
      <point x="30" y="409.667"/>
      <point x="65" y="471.667"/>
      <point x="137" y="497" type="curve"/>
      <point x="142" y="482" type="line"/>
      <point x="86" y="459.333"/>
      <point x="46" y="413.667"/>
      <point x="46" y="315" type="curve" smooth="yes"/>
      <point x="46" y="179" type="line" smooth="yes"/>
      <point x="46" y="64.3333"/>
      <point x="93" y="4"/>
      <point x="185" y="4" type="curve" smooth="yes"/>
      <point x="250.333" y="4"/>
      <point x="283.333" y="41"/>
      <point x="286" y="109" type="curve"/>
      <point x="286" y="296" type="line"/>
      <point x="306" y="296" type="line"/>
      <point x="306" y="109" type="line"/>
      <point x="308.667" y="41"/>
      <point x="340.667" y="4"/>
      <point x="406" y="4" type="curve" smooth="yes"/>
      <point x="498" y="4"/>
      <point x="545" y="64.3333"/>
      <point x="545" y="179" type="curve" smooth="yes"/>
      <point x="545" y="315" type="line" smooth="yes"/>
      <point x="545" y="413.667"/>
      <point x="505" y="459.333"/>
      <point x="449" y="482" type="curve"/>
    </contour>
  </outline>
</glyph>
<glyph name="quoteleft" format="1">
  <advance width="103"/>
  <unicode hex="2018"/>
  <outline>
    <contour>
      <point x="74" y="665" type="line"/>
      <point x="54" y="647.667"/>
      <point x="49.6667" y="624.667"/>
      <point x="47" y="610" type="curve"/>
      <point x="53.6667" y="608.667"/>
      <point x="60" y="603"/>
      <point x="60" y="595" type="curve" smooth="yes"/>
      <point x="60" y="585.667"/>
      <point x="52.6667" y="579"/>
      <point x="42" y="579" type="curve" smooth="yes"/>
      <point x="32.6667" y="579"/>
      <point x="27" y="585.667"/>
      <point x="27" y="595" type="curve"/>
      <point x="25.4444" y="648.222"/>
      <point x="66.5555" y="672.111"/>
      <point x="65" y="672" type="curve"/>
    </contour>
  </outline>
</glyph>
<glyph name="quotedblright" format="1">
  <advance width="282"/>
  <unicode hex="201D"/>
  <outline>
    <contour>
      <point x="26" y="591" type="line"/>
      <point x="44.6667" y="609.667"/>
      <point x="49.6667" y="631.333"/>
      <point x="51" y="646" type="curve"/>
      <point x="44.3333" y="648.667"/>
      <point x="40" y="653"/>
      <point x="40" y="661" type="curve" smooth="yes"/>
      <point x="40" y="671.667"/>
      <point x="48" y="679"/>
      <point x="56" y="679" type="curve" smooth="yes"/>
      <point x="66.6667" y="679"/>
      <point x="73" y="671.667"/>
      <point x="73" y="661" type="curve"/>
      <point x="73.3333" y="607.222"/>
      <point x="33.6666" y="585.444"/>
      <point x="34" y="585" type="curve"/>
    </contour>
    <contour>
      <point x="205" y="591" type="line"/>
      <point x="225" y="609.667"/>
      <point x="228.667" y="631.333"/>
      <point x="230" y="646" type="curve"/>
      <point x="224.667" y="648.667"/>
      <point x="219" y="653"/>
      <point x="219" y="661" type="curve" smooth="yes"/>
      <point x="219" y="671.667"/>
      <point x="226.667" y="679"/>
      <point x="236" y="679" type="curve" smooth="yes"/>
      <point x="246.667" y="679"/>
      <point x="252" y="671.667"/>
      <point x="252" y="661" type="curve"/>
      <point x="253.556" y="607.222"/>
      <point x="212.444" y="585.444"/>
      <point x="214" y="585" type="curve"/>
    </contour>
  </outline>
</glyph>
<glyph name="bullet" format="1">
  <advance width="269"/>
  <unicode hex="2022"/>
  <outline>
    <contour>
      <point x="206" y="408" type="curve" smooth="yes"/>
      <point x="226" y="386.667"/>
      <point x="236" y="362.333"/>
      <point x="236" y="335" type="curve" smooth="yes"/>
      <point x="236" y="308.333"/>
      <point x="224.667" y="283"/>
      <point x="206" y="263" type="curve" smooth="yes"/>
      <point x="185.333" y="242.333"/>
      <point x="161" y="232"/>
      <point x="133" y="232" type="curve" smooth="yes"/>
      <point x="104.333" y="232"/>
      <point x="80" y="242.333"/>
      <point x="60" y="263" type="curve" smooth="yes"/>
      <point x="40" y="283"/>
      <point x="30" y="307"/>
      <point x="30" y="335" type="curve" smooth="yes"/>
      <point x="30" y="363.667"/>
      <point x="40" y="388"/>
      <point x="60" y="408" type="curve" smooth="yes"/>
      <point x="80" y="428.667"/>
      <point x="104.333" y="439"/>
      <point x="133" y="439" type="curve" smooth="yes"/>
      <point x="161" y="439"/>
      <point x="185.333" y="428.667"/>
    </contour>
  </outline>
</glyph>
<glyph name="ellipsis" format="1">
  <advance width="454"/>
  <unicode hex="2026"/>
  <outline>
    <contour>
      <point x="51" y="30" type="curve" smooth="yes"/>
      <point x="60.3333" y="30"/>
      <point x="68" y="22.6667"/>
      <point x="68" y="12" type="curve" smooth="yes"/>
      <point x="68" y="2.66667"/>
      <point x="60.3333" y="-4"/>
      <point x="51" y="-4" type="curve" smooth="yes"/>
      <point x="41.6667" y="-4"/>
      <point x="35" y="2.66667"/>
      <point x="35" y="12" type="curve" smooth="yes"/>
      <point x="35" y="22.6667"/>
      <point x="41.6667" y="30"/>
    </contour>
    <contour>
      <point x="225" y="30" type="curve" smooth="yes"/>
      <point x="235.667" y="30"/>
      <point x="243" y="22.6667"/>
      <point x="243" y="12" type="curve" smooth="yes"/>
      <point x="243" y="2.66667"/>
      <point x="235.667" y="-4"/>
      <point x="225" y="-4" type="curve" smooth="yes"/>
      <point x="215.667" y="-4"/>
      <point x="209" y="2.66667"/>
      <point x="209" y="12" type="curve" smooth="yes"/>
      <point x="209" y="22.6667"/>
      <point x="215.667" y="30"/>
    </contour>
    <contour>
      <point x="404" y="30" type="curve" smooth="yes"/>
      <point x="413.333" y="30"/>
      <point x="421" y="22.6667"/>
      <point x="421" y="12" type="curve" smooth="yes"/>
      <point x="421" y="2.66667"/>
      <point x="413.333" y="-4"/>
      <point x="404" y="-4" type="curve" smooth="yes"/>
      <point x="394.667" y="-4"/>
      <point x="388" y="2.66667"/>
      <point x="388" y="12" type="curve" smooth="yes"/>
      <point x="388" y="22.6667"/>
      <point x="394.667" y="30"/>
    </contour>
  </outline>
</glyph>
<glyph name="perthousand" format="1">
  <advance width="1053"/>
  <unicode hex="2030"/>
  <outline>
    <contour>
      <point x="66" y="0" type="line"/>
      <point x="603" y="698" type="line"/>
      <point x="629" y="698" type="line"/>
      <point x="92" y="0" type="line"/>
    </contour>
    <contour>
      <point x="173" y="712" type="curve" smooth="yes"/>
      <point x="251.667" y="712"/>
      <point x="318" y="647.583"/>
      <point x="318" y="566" type="curve" smooth="yes"/>
      <point x="318" y="485.983"/>
      <point x="251.667" y="421"/>
      <point x="173" y="421" type="curve" smooth="yes"/>
      <point x="92.3167" y="421"/>
      <point x="27" y="485.983"/>
      <point x="27" y="566" type="curve" smooth="yes"/>
      <point x="27" y="647.583"/>
      <point x="92.3167" y="712"/>
    </contour>
    <contour>
      <point x="173" y="692" type="curve" smooth="yes"/>
      <point x="103.4" y="692"/>
      <point x="47" y="635.6"/>
      <point x="47" y="566" type="curve" smooth="yes"/>
      <point x="47" y="497.967"/>
      <point x="103.4" y="441"/>
      <point x="173" y="441" type="curve" smooth="yes"/>
      <point x="240.367" y="441"/>
      <point x="297" y="497.967"/>
      <point x="297" y="566" type="curve" smooth="yes"/>
      <point x="297" y="635.6"/>
      <point x="240.367" y="692"/>
    </contour>
    <contour>
      <point x="532" y="276" type="curve" smooth="yes"/>
      <point x="612.917" y="276"/>
      <point x="677" y="211.017"/>
      <point x="677" y="131" type="curve" smooth="yes"/>
      <point x="677" y="50.9833"/>
      <point x="612.917" y="-14"/>
      <point x="532" y="-14" type="curve" smooth="yes"/>
      <point x="451.983" y="-14"/>
      <point x="387" y="50.9833"/>
      <point x="387" y="131" type="curve" smooth="yes"/>
      <point x="387" y="211.017"/>
      <point x="451.983" y="276"/>
    </contour>
    <contour>
      <point x="532" y="256" type="curve" smooth="yes"/>
      <point x="463.967" y="256"/>
      <point x="407" y="199.933"/>
      <point x="407" y="131" type="curve" smooth="yes"/>
      <point x="407" y="62.2833"/>
      <point x="463.967" y="7"/>
      <point x="532" y="7" type="curve" smooth="yes"/>
      <point x="601.6" y="7"/>
      <point x="658" y="62.2833"/>
      <point x="658" y="131" type="curve" smooth="yes"/>
      <point x="658" y="199.933"/>
      <point x="601.6" y="256"/>
    </contour>
    <contour>
      <point x="878" y="276" type="curve" smooth="yes"/>
      <point x="958.017" y="276"/>
      <point x="1023" y="211.017"/>
      <point x="1023" y="131" type="curve" smooth="yes"/>
      <point x="1023" y="50.9833"/>
      <point x="958.017" y="-14"/>
      <point x="878" y="-14" type="curve" smooth="yes"/>
      <point x="797.983" y="-14"/>
      <point x="733" y="50.9833"/>
      <point x="733" y="131" type="curve" smooth="yes"/>
      <point x="733" y="211.017"/>
      <point x="797.983" y="276"/>
    </contour>
    <contour>
      <point x="878" y="256" type="curve" smooth="yes"/>
      <point x="808.4" y="256"/>
      <point x="752" y="199.933"/>
      <point x="752" y="131" type="curve" smooth="yes"/>
      <point x="752" y="62.2833"/>
      <point x="808.4" y="7"/>
      <point x="878" y="7" type="curve" smooth="yes"/>
      <point x="947.617" y="7"/>
      <point x="1002" y="62.2833"/>
      <point x="1002" y="131" type="curve" smooth="yes"/>
      <point x="1002" y="199.933"/>
      <point x="947.617" y="256"/>
    </contour>
  </outline>
</glyph>
<glyph name="fraction" format="1">
  <advance width="379"/>
  <unicode hex="2044"/>
  <outline>
    <contour>
      <point x="18" y="-113" type="line"/>
      <point x="342" y="815" type="line"/>
      <point x="362" y="815" type="line"/>
      <point x="38" y="-113" type="line"/>
    </contour>
  </outline>
</glyph>
<glyph name="trademark" format="1">
  <advance width="427"/>
  <unicode hex="2122"/>
  <outline>
    <contour>
      <point x="119" y="678" type="line"/>
      <point x="119" y="512" type="line"/>
      <point x="100" y="512" type="line"/>
      <point x="100" y="678" type="line"/>
      <point x="22" y="678" type="line"/>
      <point x="22" y="698" type="line"/>
      <point x="221" y="698" type="line"/>
      <point x="291" y="531" type="line"/>
      <point x="364" y="698" type="line"/>
      <point x="392" y="698" type="line"/>
      <point x="392" y="512" type="line"/>
      <point x="376" y="512" type="line"/>
      <point x="376" y="678" type="line"/>
      <point x="302" y="512" type="line"/>
      <point x="281" y="512" type="line"/>
      <point x="208" y="678" type="line"/>
      <point x="208" y="512" type="line"/>
      <point x="189" y="512" type="line"/>
      <point x="189" y="678" type="line"/>
    </contour>
  </outline>
</glyph>
<glyph name="commaaccent" format="1">
  <advance width="266"/>
  <unicode hex="F6C3"/>
  <outline>
    <contour>
      <point x="109" y="-167" type="line"/>
      <point x="127.667" y="-148.333"/>
      <point x="133.667" y="-127.667"/>
      <point x="135" y="-113" type="curve"/>
      <point x="128.333" y="-110.333"/>
      <point x="124" y="-105"/>
      <point x="124" y="-97" type="curve" smooth="yes"/>
      <point x="124" y="-87.6667"/>
      <point x="130.667" y="-80"/>
      <point x="140" y="-80" type="curve" smooth="yes"/>
      <point x="150.667" y="-80"/>
      <point x="157" y="-86.3333"/>
      <point x="157" y="-97" type="curve"/>
      <point x="157.333" y="-150.222"/>
      <point x="117.667" y="-174.111"/>
      <point x="118" y="-174" type="curve"/>
    </contour>
  </outline>
</glyph>
<glyph name="fi" format="1">
  <advance width="348"/>
  <unicode hex="FB01"/>
  <outline>
    <contour>
      <point x="39" y="560" type="line" smooth="yes"/>
      <point x="39" y="643.813"/>
      <point x="100.852" y="707"/>
      <point x="185" y="707" type="curve" smooth="yes"/>
      <point x="229" y="707"/>
      <point x="270.667" y="691.333"/>
      <point x="304" y="658" type="curve"/>
      <point x="292" y="645" type="line"/>
      <point x="260" y="675.667"/>
      <point x="221" y="690"/>
      <point x="185" y="690" type="curve" smooth="yes"/>
      <point x="117.238" y="690"/>
      <point x="55.0152" y="635.689"/>
      <point x="59" y="554" type="curve"/>
      <point x="59" y="498" type="line"/>
      <point x="209" y="498" type="line"/>
      <point x="202" y="482" type="line"/>
      <point x="59" y="482" type="line"/>
      <point x="59" y="0" type="line"/>
      <point x="39" y="0" type="line"/>
    </contour>
    <contour>
      <point x="308" y="0" type="line"/>
      <point x="288" y="0" type="line"/>
      <point x="288" y="498" type="line"/>
      <point x="308" y="498" type="line"/>
    </contour>
  </outline>
</glyph>
<glyph name="fl" format="1">
  <advance width="347"/>
  <unicode hex="FB02"/>
  <outline>
    <contour>
      <point x="288" y="646" type="line"/>
      <point x="258.667" y="672.667"/>
      <point x="225.667" y="684.667"/>
      <point x="191" y="686" type="curve" smooth="yes"/>
      <point x="121.043" y="687.999"/>
      <point x="55.0037" y="638.929"/>
      <point x="59" y="563" type="curve"/>
      <point x="59" y="498" type="line"/>
      <point x="209" y="498" type="line"/>
      <point x="202" y="482" type="line"/>
      <point x="59" y="482" type="line"/>
      <point x="59" y="0" type="line"/>
      <point x="39" y="0" type="line"/>
      <point x="39" y="560" type="line" smooth="yes"/>
      <point x="39" y="670.407"/>
      <point x="130.489" y="704"/>
      <point x="189" y="704" type="curve" smooth="yes"/>
      <point x="231.667" y="704"/>
      <point x="267.667" y="686.667"/>
      <point x="305" y="656" type="curve"/>
      <point x="305" y="0" type="line"/>
      <point x="288" y="0" type="line"/>
    </contour>
  </outline>
</glyph>
<glyph name="ffl" format="1">
  <advance width="576"/>
  <unicode hex="FB04"/>
  <outline>
    <contour>
      <point x="517" y="646" type="line"/>
      <point x="474.333" y="686"/>
      <point x="418.667" y="695"/>
      <point x="372" y="679" type="curve" smooth="yes"/>
      <point x="324" y="661.667"/>
      <point x="288" y="620"/>
      <point x="288" y="563" type="curve" smooth="yes"/>
      <point x="288" y="498" type="line"/>
      <point x="439" y="498" type="line"/>
      <point x="432" y="482" type="line"/>
      <point x="288" y="482" type="line"/>
      <point x="288" y="0" type="line"/>
      <point x="268" y="0" type="line"/>
      <point x="268" y="559" type="line" smooth="yes"/>
      <point x="268" y="593.873"/>
      <point x="278.791" y="624.721"/>
      <point x="297" y="649" type="curve"/>
      <point x="265" y="674.333"/>
      <point x="227.667" y="685.667"/>
      <point x="189" y="687" type="curve" smooth="yes"/>
      <point x="120.329" y="689.02"/>
      <point x="59" y="642"/>
      <point x="59" y="557" type="curve" smooth="yes"/>
      <point x="59" y="498" type="line"/>
      <point x="209" y="498" type="line"/>
      <point x="201" y="482" type="line"/>
      <point x="59" y="482" type="line"/>
      <point x="59" y="0" type="line"/>
      <point x="39" y="0" type="line"/>
      <point x="39" y="559" type="line" smooth="yes"/>
      <point x="39" y="657.848"/>
      <point x="119.004" y="704"/>
      <point x="180" y="704" type="curve" smooth="yes"/>
      <point x="220" y="704"/>
      <point x="259.667" y="696.667"/>
      <point x="313" y="662" type="curve"/>
      <point x="335.667" y="684.667"/>
      <point x="372" y="703"/>
      <point x="416" y="703" type="curve" smooth="yes"/>
      <point x="460" y="703"/>
      <point x="498" y="686"/>
      <point x="534" y="654" type="curve"/>
      <point x="534" y="0" type="line"/>
      <point x="517" y="0" type="line"/>
    </contour>
  </outline>
</glyph>
<glyph name="commaturnedabovecomb" format="1">
  <advance width="266"/>
  <outline>
    <contour>
      <point x="157" y="679" type="line"/>
      <point x="138.333" y="660.333"/>
      <point x="133.667" y="638.667"/>
      <point x="131" y="624" type="curve"/>
      <point x="137.667" y="621.333"/>
      <point x="142" y="616"/>
      <point x="142" y="608" type="curve" smooth="yes"/>
      <point x="142" y="598.667"/>
      <point x="135.333" y="592"/>
      <point x="126" y="592" type="curve" smooth="yes"/>
      <point x="116.667" y="592"/>
      <point x="109" y="598.667"/>
      <point x="109" y="608" type="curve"/>
      <point x="108.667" y="661.222"/>
      <point x="148.333" y="685.111"/>
      <point x="148" y="685" type="curve"/>
    </contour>
  </outline>
</glyph>
<glyph name="dieresistonoscomb" format="1">
  <advance width="266"/>
  <outline>
    <contour>
      <point x="71" y="690" type="curve" smooth="yes"/>
      <point x="71" y="680.667"/>
      <point x="63.3333" y="673"/>
      <point x="54" y="673" type="curve" smooth="yes"/>
      <point x="44.6667" y="673"/>
      <point x="36" y="680.667"/>
      <point x="36" y="690" type="curve" smooth="yes"/>
      <point x="36" y="700.667"/>
      <point x="44.6667" y="706"/>
      <point x="54" y="706" type="curve" smooth="yes"/>
      <point x="63.3333" y="706"/>
      <point x="71" y="700.667"/>
    </contour>
    <contour>
      <point x="229" y="690" type="curve" smooth="yes"/>
      <point x="229" y="680.667"/>
      <point x="221.667" y="673"/>
      <point x="211" y="673" type="curve" smooth="yes"/>
      <point x="201.667" y="673"/>
      <point x="195" y="680.667"/>
      <point x="195" y="690" type="curve" smooth="yes"/>
      <point x="195" y="700.667"/>
      <point x="201.667" y="706"/>
      <point x="211" y="706" type="curve" smooth="yes"/>
      <point x="221.667" y="706"/>
      <point x="229" y="700.667"/>
    </contour>
    <contour>
      <point x="201" y="824" type="curve"/>
      <point x="146" y="724" type="line"/>
      <point x="124" y="724" type="line"/>
      <point x="175" y="837" type="line"/>
      <point x="179.894" y="849.146"/>
      <point x="190.529" y="850.244"/>
      <point x="197.561" y="845.745" type="curve" smooth="yes"/>
      <point x="203.884" y="841.7"/>
      <point x="207.294" y="833.131"/>
    </contour>
  </outline>
</glyph>
<glyph name="ft" format="1">
  <advance width="485"/>
  <outline>
    <contour>
      <point x="305" y="132" type="line" smooth="yes"/>
      <point x="305" y="58.6667"/>
      <point x="332" y="26.6667"/>
      <point x="400" y="4" type="curve"/>
      <point x="392" y="-13" type="line"/>
      <point x="317.333" y="8.33333"/>
      <point x="285" y="53.3333"/>
      <point x="285" y="132" type="curve" smooth="yes"/>
      <point x="285" y="646" type="line"/>
      <point x="258.333" y="672.667"/>
      <point x="221.667" y="684.667"/>
      <point x="187" y="686" type="curve" smooth="yes"/>
      <point x="117.243" y="687.993"/>
      <point x="53.0022" y="638.917"/>
      <point x="55" y="563" type="curve"/>
      <point x="55" y="498" type="line"/>
      <point x="208" y="498" type="line"/>
      <point x="201" y="482" type="line"/>
      <point x="55" y="482" type="line"/>
      <point x="55" y="0" type="line"/>
      <point x="49.6667" y="0"/>
      <point x="44.3333" y="0"/>
      <point x="39" y="0" type="curve"/>
      <point x="39" y="560" type="line" smooth="yes"/>
      <point x="39" y="670.407"/>
      <point x="130.489" y="704"/>
      <point x="189" y="704" type="curve" smooth="yes"/>
      <point x="231.667" y="704"/>
      <point x="267.667" y="686.667"/>
      <point x="305" y="656" type="curve"/>
      <point x="305" y="498" type="line"/>
      <point x="462" y="498" type="line"/>
      <point x="454" y="482" type="line"/>
      <point x="305" y="482" type="line"/>
    </contour>
  </outline>
</glyph>
<glyph name="gamma_kappa" format="1">
  <advance width="894"/>
  <outline>
    <contour>
      <point x="505" y="497" type="line"/>
      <point x="440" y="505"/>
      <point x="422" y="467"/>
      <point x="407" y="417" type="curve" smooth="yes"/>
      <point x="253" y="-92" type="line" smooth="yes"/>
      <point x="240" y="-135"/>
      <point x="207" y="-199"/>
      <point x="114" y="-199" type="curve"/>
      <point x="109" y="-180" type="line"/>
      <point x="204" y="-180"/>
      <point x="224" y="-118"/>
      <point x="236" y="-79" type="curve" smooth="yes"/>
      <point x="258" y="-6" type="line"/>
      <point x="189" y="-2"/>
      <point x="152" y="48"/>
      <point x="128" y="129" type="curve" smooth="yes"/>
      <point x="19" y="500" type="line"/>
      <point x="38" y="500" type="line"/>
      <point x="144" y="140" type="line" smooth="yes"/>
      <point x="169" y="56"/>
      <point x="201" y="15"/>
      <point x="265" y="15" type="curve"/>
      <point x="391" y="427" type="line" smooth="yes"/>
      <point x="411" y="492"/>
      <point x="442" y="520"/>
      <point x="503" y="512" type="curve"/>
      <point x="505" y="511" type="line"/>
    </contour>
    <contour>
      <point x="757" y="113" type="line" smooth="yes"/>
      <point x="802" y="50"/>
      <point x="842" y="18"/>
      <point x="872" y="18" type="curve"/>
      <point x="872" y="-1" type="line"/>
      <point x="824" y="-1"/>
      <point x="782" y="50"/>
      <point x="756" y="86" type="curve" smooth="yes"/>
      <point x="617" y="278" type="line"/>
      <point x="521" y="179" type="line"/>
      <point x="521" y="0" type="line"/>
      <point x="503" y="0" type="line"/>
      <point x="503" y="512" type="line"/>
      <point x="521" y="508" type="line"/>
      <point x="521" y="206" type="line"/>
      <point x="794" y="501" type="line"/>
      <point x="820" y="501" type="line"/>
      <point x="629" y="292" type="line"/>
    </contour>
  </outline>
</glyph>
<glyph name="lambda_lambda" format="1">
  <advance width="897"/>
  <outline>
    <contour>
      <point x="436" y="-1" type="line"/>
      <point x="417" y="-1" type="line"/>
      <point x="267" y="486" type="line"/>
      <point x="201" y="486"/>
      <point x="172" y="442"/>
      <point x="148" y="360" type="curve" smooth="yes"/>
      <point x="41" y="-1" type="line"/>
      <point x="23" y="-1" type="line"/>
      <point x="132" y="371" type="line" smooth="yes"/>
      <point x="155" y="450"/>
      <point x="189" y="500"/>
      <point x="261" y="506" type="curve"/>
      <point x="239" y="578" type="line" smooth="yes"/>
      <point x="227" y="617"/>
      <point x="207" y="678"/>
      <point x="113" y="678" type="curve"/>
      <point x="117" y="697" type="line"/>
      <point x="211" y="697"/>
      <point x="243" y="634"/>
      <point x="257" y="590" type="curve" smooth="yes"/>
    </contour>
    <contour>
      <point x="798" y="114" type="line" smooth="yes"/>
      <point x="814" y="60"/>
      <point x="828" y="30"/>
      <point x="882" y="5" type="curve"/>
      <point x="871" y="-8" type="line"/>
      <point x="816" y="18"/>
      <point x="798" y="47"/>
      <point x="778" y="112" type="curve" smooth="yes"/>
      <point x="665" y="485" type="line"/>
      <point x="599" y="485"/>
      <point x="569" y="442"/>
      <point x="545" y="360" type="curve" smooth="yes"/>
      <point x="438" y="-1" type="line"/>
      <point x="420" y="-1" type="line"/>
      <point x="529" y="371" type="line" smooth="yes"/>
      <point x="552" y="450"/>
      <point x="586" y="500"/>
      <point x="658" y="506" type="curve"/>
      <point x="636" y="578" type="line" smooth="yes"/>
      <point x="624" y="617"/>
      <point x="604" y="678"/>
      <point x="510" y="678" type="curve"/>
      <point x="514" y="697" type="line"/>
      <point x="608" y="697"/>
      <point x="640" y="634"/>
      <point x="654" y="590" type="curve" smooth="yes"/>
    </contour>
  </outline>
</glyph>
<glyph name="sigma_tau" format="1">
  <advance width="745"/>
  <outline>
    <contour>
      <point x="721" y="480" type="line"/>
      <point x="669" y="472"/>
      <point x="607" y="469"/>
      <point x="548" y="469" type="curve" smooth="yes"/>
      <point x="446" y="469"/>
      <point x="350" y="478"/>
      <point x="325" y="484" type="curve"/>
      <point x="376" y="449"/>
      <point x="396" y="402"/>
      <point x="396" y="320" type="curve" smooth="yes"/>
      <point x="396" y="185" type="line" smooth="yes"/>
      <point x="396" y="67"/>
      <point x="336" y="-10"/>
      <point x="215" y="-10" type="curve" smooth="yes"/>
      <point x="87" y="-10"/>
      <point x="27" y="77"/>
      <point x="27" y="185" type="curve" smooth="yes"/>
      <point x="27" y="328" type="line" smooth="yes"/>
      <point x="27" y="462"/>
      <point x="120" y="512"/>
      <point x="217" y="512" type="curve" smooth="yes"/>
      <point x="245" y="512"/>
      <point x="284" y="508"/>
      <point x="318" y="502" type="curve" smooth="yes"/>
      <point x="388" y="491"/>
      <point x="466" y="488"/>
      <point x="542" y="488" type="curve" smooth="yes"/>
      <point x="604" y="488"/>
      <point x="663" y="492"/>
      <point x="720" y="500" type="curve"/>
    </contour>
    <contour>
      <point x="377" y="320" type="line" smooth="yes"/>
      <point x="377" y="445"/>
      <point x="308" y="477"/>
      <point x="285" y="488" type="curve"/>
      <point x="260" y="493"/>
      <point x="234" y="494"/>
      <point x="220" y="494" type="curve" smooth="yes"/>
      <point x="120" y="494"/>
      <point x="47" y="441"/>
      <point x="47" y="324" type="curve" smooth="yes"/>
      <point x="47" y="185" type="line" smooth="yes"/>
      <point x="47" y="86"/>
      <point x="104" y="8"/>
      <point x="217" y="8" type="curve" smooth="yes"/>
      <point x="328" y="8"/>
      <point x="377" y="84"/>
      <point x="377" y="185" type="curve" smooth="yes"/>
    </contour>
    <contour>
      <point x="577" y="133" type="line" smooth="yes"/>
      <point x="577" y="70"/>
      <point x="581" y="23"/>
      <point x="651" y="4" type="curve"/>
      <point x="644" y="-13" type="line"/>
      <point x="568" y="11"/>
      <point x="557" y="59"/>
      <point x="557" y="133" type="curve" smooth="yes"/>
      <point x="557" y="481" type="line"/>
      <point x="577" y="481" type="line"/>
    </contour>
  </outline>
</glyph>
<glyph name="t_t" format="1">
  <advance width="405"/>
  <outline>
    <component base="t" xOffset="165"/>
    <contour>
      <point x="60.1652" y="132.37" type="line" smooth="yes"/>
      <point x="60.1652" y="59.1652"/>
      <point x="86.238" y="27.0756"/>
      <point x="152.423" y="4.0112" type="curve"/>
      <point x="145.403" y="-13.0364" type="line"/>
      <point x="72.1988" y="9.0252"/>
      <point x="40.1092" y="54.1512"/>
      <point x="40.1092" y="132.37" type="curve" smooth="yes"/>
      <point x="40.1092" y="699.954" type="line"/>
      <point x="60.1652" y="699.954" type="line"/>
      <point x="60.1652" y="500.397" type="line"/>
      <point x="211.588" y="500.397" type="line"/>
      <point x="211.588" y="482.347" type="line"/>
      <point x="60.1652" y="482.347" type="line"/>
    </contour>
  </outline>
</glyph>
<glyph name="uni0312" format="1">
  <advance width="266"/>
  <outline>
    <contour>
      <point x="157" y="679" type="line"/>
      <point x="138" y="660"/>
      <point x="134" y="639"/>
      <point x="131" y="624" type="curve"/>
      <point x="138" y="621"/>
      <point x="142" y="615"/>
      <point x="142" y="608" type="curve" smooth="yes"/>
      <point x="142" y="597"/>
      <point x="137" y="592"/>
      <point x="126" y="592" type="curve" smooth="yes"/>
      <point x="117" y="592"/>
      <point x="109" y="599"/>
      <point x="109" y="608" type="curve" smooth="yes"/>
      <point x="109" y="635"/>
      <point x="117" y="653"/>
      <point x="128" y="666" type="curve" smooth="yes"/>
      <point x="134" y="673"/>
      <point x="141" y="680"/>
      <point x="148" y="685" type="curve"/>
    </contour>
  </outline>
</glyph>
<glyph name="uni0327" format="1">
  <advance width="266"/>
  <outline>
    <contour>
      <point x="150" y="0" type="line"/>
      <point x="123" y="-46" type="line"/>
      <point x="157" y="-46" type="line" smooth="yes"/>
      <point x="209" y="-46"/>
      <point x="248" y="-85"/>
      <point x="248" y="-136" type="curve" smooth="yes"/>
      <point x="248" y="-197"/>
      <point x="201" y="-223"/>
      <point x="158" y="-226" type="curve"/>
      <point x="113" y="-226"/>
      <point x="92" y="-221"/>
      <point x="57" y="-213" type="curve"/>
      <point x="58" y="-209"/>
      <point x="59" y="-206"/>
      <point x="60" y="-205" type="curve" smooth="yes"/>
      <point x="61" y="-204"/>
      <point x="62" y="-201"/>
      <point x="63" y="-196" type="curve"/>
      <point x="63" y="-196"/>
      <point x="66" y="-197"/>
      <point x="71" y="-198" type="curve"/>
      <point x="81" y="-201"/>
      <point x="98" y="-204"/>
      <point x="122" y="-206" type="curve" smooth="yes"/>
      <point x="133" y="-207"/>
      <point x="145" y="-208"/>
      <point x="157" y="-207" type="curve"/>
      <point x="161" y="-206"/>
      <point x="167" y="-205"/>
      <point x="175" y="-204" type="curve"/>
      <point x="191" y="-201"/>
      <point x="208" y="-191"/>
      <point x="220" y="-173" type="curve" smooth="yes"/>
      <point x="226" y="-164"/>
      <point x="229" y="-152"/>
      <point x="229" y="-136" type="curve" smooth="yes"/>
      <point x="229" y="-96"/>
      <point x="200" y="-67"/>
      <point x="157" y="-67" type="curve" smooth="yes"/>
      <point x="100" y="-67" type="line"/>
      <point x="100" y="-46" type="line"/>
      <point x="129" y="0" type="line"/>
    </contour>
  </outline>
</glyph>
